<svg xmlns="http://www.w3.org/2000/svg" xmlns:xlink="http://www.w3.org/1999/xlink" width="500" zoomAndPan="magnify" viewBox="0 0 375 374.999991" height="500" preserveAspectRatio="xMidYMid meet" version="1.0"><defs><clipPath id="c63ffd98f9"><path d="M 4.183594 146 L 177 146 L 177 352 L 4.183594 352 Z M 4.183594 146 " clip-rule="nonzero"/></clipPath><clipPath id="971771bf64"><path d="M 70 21.179688 L 295 21.179688 L 295 158 L 70 158 Z M 70 21.179688 " clip-rule="nonzero"/></clipPath><clipPath id="8b679e7b1d"><path d="M 192 145 L 370.933594 145 L 370.933594 354 L 192 354 Z M 192 145 " clip-rule="nonzero"/></clipPath><clipPath id="3535edacc4"><path d="M 127.523438 141.949219 L 247.523438 141.949219 L 247.523438 261.949219 L 127.523438 261.949219 Z M 127.523438 141.949219 " clip-rule="nonzero"/></clipPath></defs><g clip-path="url(#c63ffd98f9)"><path fill="#003539" d="M 76.722656 146.320312 C 76.257812 146.378906 75.894531 146.625 75.679688 147 L 71.589844 154.039062 L 101.328125 171.199219 L 105.414062 164.160156 C 105.628906 163.785156 105.589844 163.324219 105.414062 162.890625 C 105.238281 162.457031 104.910156 162.039062 104.414062 161.753906 L 78.21875 146.636719 C 77.726562 146.355469 77.1875 146.261719 76.722656 146.320312 Z M 71.183594 154.71875 L 67.824219 160.574219 L 97.5625 177.738281 L 100.921875 171.878906 Z M 67.414062 161.300781 L 61.875 170.835938 L 91.613281 187.996094 L 97.152344 178.464844 Z M 59.605469 172.878906 L 24.195312 194.445312 L 23.964844 194.578125 C 23.769531 194.707031 23.570312 194.800781 23.375 194.941406 C 22.199219 195.808594 21.203125 196.957031 20.425781 198.300781 C 18.910156 200.929688 18.59375 203.898438 19.335938 206.609375 L 81.941406 242.75 C 84.664062 242.039062 87.101562 240.289062 88.617188 237.664062 C 89.394531 236.316406 89.820312 234.847656 89.980469 233.394531 C 90.035156 233.160156 90.035156 232.953125 90.035156 232.714844 L 90.035156 232.441406 L 90.992188 190.992188 L 59.621094 172.878906 Z M 68.277344 186.136719 C 69.742188 186.023438 71.160156 186.277344 72.410156 186.996094 C 77.40625 189.875 76.683594 198.714844 76.675781 204.476562 C 76.648438 210.238281 77.402344 219.074219 72.410156 221.957031 C 67.414062 224.835938 60.101562 219.800781 55.113281 216.917969 C 50.121094 214.03125 42.082031 210.285156 42.082031 204.523438 C 42.070312 198.757812 50.125 194.878906 55.113281 191.992188 C 58.851562 189.828125 63.886719 186.46875 68.277344 186.136719 Z M 17.882812 209.152344 L 13.480469 216.734375 L 13.210938 217.277344 L 8.035156 226.632812 C 4.421875 233.191406 4.140625 238.839844 5.582031 244.019531 C 7.027344 249.199219 10.328125 253.917969 14.074219 257.957031 C 24 268.652344 40.804688 273.253906 64.332031 273.257812 L 80.492188 245.289062 L 17.886719 209.152344 Z M 8.714844 258.457031 L 39.632812 315.113281 L 45.667969 326.691406 C 46.859375 328.929688 48.023438 330.871094 49.164062 332.683594 L 52.070312 336.953125 C 55.8125 341.863281 59.601562 344.847656 64.191406 346.667969 C 67.640625 348.035156 71.621094 348.765625 76.359375 349.164062 L 96.5625 349.753906 C 107.1875 349.890625 121.242188 350.359375 137.875 350.933594 C 138.53125 350.976562 139.027344 350.976562 139.691406 350.980469 L 158.9375 351.527344 L 170.015625 350.390625 C 174.042969 350.472656 176.238281 347.109375 176.238281 343.082031 C 176.238281 339.054688 174.042969 335.816406 170.015625 335.816406 L 167.476562 334.683594 C 166.628906 334.683594 165.976562 334.03125 165.976562 333.183594 C 165.976562 332.339844 166.628906 331.597656 167.476562 331.597656 L 170.015625 330.507812 C 174.042969 330.507812 176.238281 327.222656 176.238281 323.199219 C 176.238281 319.171875 174.042969 315.933594 170.015625 315.933594 L 167.476562 314.800781 C 166.628906 314.800781 165.976562 314.144531 165.976562 313.300781 L 165.976562 313.210938 C 165.976562 312.367188 166.628906 311.710938 167.476562 311.710938 L 170.015625 310.574219 C 174.042969 310.574219 176.238281 307.339844 176.238281 303.3125 C 176.238281 299.285156 174.042969 296.003906 170.015625 296.003906 L 167.476562 294.914062 C 166.628906 294.914062 165.976562 294.167969 165.976562 293.324219 C 165.976562 292.480469 166.628906 291.824219 167.476562 291.824219 L 170.015625 290.691406 C 174.042969 290.691406 176.238281 287.453125 176.238281 283.425781 C 176.238281 279.398438 174.042969 276.039062 170.015625 276.117188 L 158.894531 274.984375 L 139.464844 275.527344 L 95.835938 276.753906 L 80.535156 277.207031 L 79.082031 277.253906 L 70.046875 277.527344 C 66.320312 277.632812 62.746094 277.625 59.289062 277.527344 C 58.207031 277.5 57.167969 277.441406 56.109375 277.390625 C 36.023438 276.398438 20.753906 271.535156 10.890625 260.910156 C 10.160156 260.121094 9.417969 259.304688 8.710938 258.457031 Z M 8.714844 258.457031 " fill-opacity="1" fill-rule="nonzero"/></g><g clip-path="url(#971771bf64)"><path fill="#003539" d="M 226.464844 21.359375 C 225.3125 21.351562 224.097656 21.363281 222.832031 21.40625 L 209.800781 21.996094 L 145.292969 23.539062 C 146.378906 23.726562 147.417969 23.9375 148.46875 24.175781 C 162.601562 27.402344 174.480469 38.238281 185.378906 55.136719 C 185.957031 56.027344 186.496094 56.894531 187.058594 57.816406 C 188.296875 59.824219 189.566406 62.015625 190.78125 64.171875 C 190.898438 64.394531 190.972656 64.539062 191.101562 64.761719 L 192.460938 67.125 L 192.550781 67.257812 L 206.898438 92.183594 L 269.503906 56.046875 C 269.105469 55.378906 268.660156 54.597656 268.277344 53.957031 L 265.144531 48.417969 L 264.785156 47.917969 L 259.292969 38.75 C 258.058594 36.707031 256.695312 35.03125 255.296875 33.617188 C 253.378906 31.175781 251.464844 29.128906 249.394531 27.492188 C 245.523438 24.425781 241.039062 22.601562 234.910156 21.816406 L 229.78125 21.453125 C 228.710938 21.410156 227.617188 21.371094 226.46875 21.363281 L 226.46875 21.359375 Z M 137.253906 27.261719 C 135.199219 27.308594 133.171875 27.53125 131.214844 28.035156 C 127.417969 29.011719 123.835938 30.945312 120.683594 34.390625 C 120.132812 35.121094 119.5625 35.859375 119.003906 36.660156 L 108.382812 53.867188 C 102.953125 63.003906 95.539062 74.933594 86.726562 89.050781 C 86.378906 89.609375 86.125 90.03125 85.773438 90.59375 L 75.695312 106.984375 L 71.109375 117.152344 C 69.027344 120.601562 70.84375 124.175781 74.332031 126.1875 C 77.820312 128.203125 81.714844 127.949219 83.730469 124.460938 L 86 122.828125 C 86.421875 122.097656 87.3125 121.863281 88.042969 122.285156 C 88.773438 122.707031 89.097656 123.640625 88.675781 124.371094 L 88.359375 127.097656 C 86.34375 130.582031 88.09375 134.117188 91.582031 136.128906 C 95.070312 138.144531 98.964844 137.894531 100.980469 134.40625 L 103.203125 132.769531 C 103.625 132.039062 104.515625 131.804688 105.246094 132.226562 C 105.296875 132.234375 105.304688 132.21875 105.304688 132.226562 C 105.355469 132.234375 105.359375 132.265625 105.359375 132.273438 C 106.09375 132.695312 106.328125 133.585938 105.90625 134.316406 L 105.636719 137.085938 C 103.621094 140.574219 105.328125 144.058594 108.8125 146.074219 C 112.300781 148.085938 116.242188 147.835938 118.257812 144.347656 L 120.480469 142.714844 C 120.902344 141.984375 121.839844 141.792969 122.570312 142.214844 C 123.300781 142.636719 123.535156 143.527344 123.113281 144.257812 L 122.84375 147.027344 C 120.828125 150.515625 122.535156 154.003906 126.019531 156.015625 C 129.507812 158.03125 133.519531 157.816406 135.464844 154.292969 L 142 145.210938 L 151.261719 128.140625 L 172.011719 89.734375 L 179.273438 76.25 L 179.957031 74.980469 L 184.222656 67.035156 C 184.75 66.058594 185.28125 65.117188 185.8125 64.175781 C 174.070312 43.871094 161.742188 31.6875 147.539062 28.445312 C 144.183594 27.679688 140.703125 27.191406 137.28125 27.265625 L 137.253906 27.265625 Z M 270.957031 58.542969 L 208.394531 94.726562 C 207.652344 97.4375 207.925781 100.410156 209.441406 103.035156 C 210.21875 104.378906 211.304688 105.484375 212.480469 106.347656 C 212.675781 106.488281 212.824219 106.585938 213.027344 106.710938 L 213.253906 106.847656 L 248.664062 128.410156 L 280.035156 110.296875 L 279.082031 68.847656 L 279.082031 68.574219 C 279.042969 68.339844 279.140625 68.132812 279.082031 67.894531 C 278.925781 66.441406 278.40625 65.019531 277.628906 63.671875 C 276.113281 61.046875 273.675781 59.253906 270.957031 58.542969 Z M 258.425781 78.425781 C 259.488281 78.472656 260.488281 78.75 261.421875 79.289062 C 266.414062 82.167969 265.730469 91.097656 265.738281 96.859375 C 265.753906 101.179688 266.144531 107.191406 264.238281 111.160156 C 263.601562 112.484375 262.671875 113.617188 261.421875 114.339844 C 256.433594 117.226562 249.15625 112.183594 244.171875 109.300781 C 239.1875 106.414062 231.140625 102.625 231.140625 96.859375 C 231.152344 91.09375 239.175781 87.253906 244.171875 84.375 C 247.917969 82.214844 252.953125 78.824219 257.335938 78.472656 C 257.703125 78.445312 258.074219 78.414062 258.425781 78.425781 Z M 280.671875 113.292969 L 250.980469 130.453125 L 256.429688 140.035156 L 286.164062 122.828125 Z M 286.621094 123.554688 L 256.882812 140.714844 L 260.242188 146.570312 L 289.980469 129.410156 Z M 290.386719 130.09375 L 260.652344 147.253906 L 264.691406 154.335938 C 264.90625 154.710938 265.320312 154.910156 265.78125 154.972656 C 266.246094 155.03125 266.789062 154.941406 267.28125 154.652344 L 293.476562 139.535156 C 293.96875 139.25 294.339844 138.832031 294.519531 138.402344 C 294.691406 137.96875 294.644531 137.550781 294.429688 137.175781 L 290.390625 130.09375 Z M 290.386719 130.09375 " fill-opacity="1" fill-rule="nonzero"/></g><g clip-path="url(#8b679e7b1d)"><path fill="#003539" d="M 317.125 145.121094 C 315.804688 145.191406 314.4375 145.636719 313.128906 146.390625 C 309.640625 148.402344 307.9375 151.9375 309.949219 155.425781 L 310.222656 158.195312 C 310.644531 158.925781 310.414062 159.816406 309.675781 160.238281 C 308.945312 160.660156 307.964844 160.46875 307.542969 159.738281 L 305.316406 158.058594 C 303.304688 154.570312 299.363281 154.320312 295.875 156.332031 C 292.386719 158.347656 290.683594 161.878906 292.695312 165.367188 L 293.015625 168.136719 C 293.441406 168.867188 293.207031 169.757812 292.472656 170.179688 C 292.421875 170.191406 292.414062 170.171875 292.414062 170.179688 C 292.363281 170.191406 292.359375 170.21875 292.359375 170.226562 C 291.625 170.648438 290.734375 170.414062 290.3125 169.683594 L 288.042969 168.046875 C 286.03125 164.558594 282.132812 164.261719 278.648438 166.277344 C 275.160156 168.289062 273.410156 171.824219 275.421875 175.3125 L 275.742188 178.082031 C 276.164062 178.8125 275.84375 179.746094 275.109375 180.167969 C 274.378906 180.589844 273.488281 180.355469 273.066406 179.625 L 270.839844 177.988281 C 268.824219 174.5 264.929688 174.207031 261.441406 176.21875 C 257.957031 178.230469 256.136719 181.804688 258.21875 185.253906 L 262.804688 195.46875 L 272.972656 211.992188 L 295.855469 249.175781 L 303.890625 262.207031 L 304.664062 263.429688 L 309.429688 271.148438 C 310.019531 272.105469 310.550781 273.019531 311.109375 273.964844 C 334.460938 273.917969 351.125 269.3125 361.003906 258.664062 C 364.75 254.625 368.050781 249.90625 369.492188 244.726562 C 370.75 240.222656 370.726562 235.34375 368.3125 229.835938 L 368.253906 229.746094 L 362.488281 219.121094 L 361.582031 217.441406 L 358.675781 212.039062 C 353.476562 202.769531 346.882812 190.367188 339.0625 175.675781 C 338.757812 175.09375 338.511719 174.671875 338.199219 174.085938 L 329.03125 157.152344 L 322.539062 148.117188 C 321.324219 145.914062 319.285156 145.003906 317.089844 145.121094 Z M 366.5625 259.160156 C 365.859375 260.011719 365.117188 260.824219 364.382812 261.613281 C 354.523438 272.238281 339.253906 277.105469 319.167969 278.09375 C 318.109375 278.148438 317.066406 278.203125 315.988281 278.230469 C 313.628906 278.296875 311.066406 278.257812 308.589844 278.230469 C 308.335938 278.222656 308.210938 278.238281 307.953125 278.230469 L 304.867188 278.230469 L 276.308594 278.183594 L 276.308594 350.507812 L 285.070312 350.507812 L 285.660156 350.460938 L 296.375 350.28125 C 298.570312 350.238281 300.527344 349.945312 302.324219 349.511719 C 305.601562 349.074219 308.496094 348.402344 311.085938 347.375 C 315.675781 345.554688 319.464844 342.574219 323.207031 337.660156 L 326.113281 333.394531 C 327.253906 331.578125 328.417969 329.640625 329.609375 327.398438 L 335.644531 315.824219 L 366.5625 259.164062 Z M 265.640625 274.960938 C 264.085938 274.960938 262.578125 275.328125 261.238281 275.914062 C 261.023438 276.011719 260.859375 276.121094 260.648438 276.230469 L 260.421875 276.367188 L 224.011719 296.253906 L 224.011719 332.480469 L 260.421875 352.367188 L 260.648438 352.503906 C 260.859375 352.613281 261.023438 352.730469 261.238281 352.824219 C 262.578125 353.410156 264.085938 353.730469 265.640625 353.730469 C 268.671875 353.730469 271.382812 352.507812 273.359375 350.507812 L 273.359375 278.230469 C 271.382812 276.230469 268.671875 274.960938 265.640625 274.960938 L 265.640625 274.957031 Z M 256.015625 296.027344 C 257.480469 295.910156 258.902344 296.164062 260.148438 296.890625 C 265.140625 299.773438 264.421875 308.605469 264.417969 314.367188 C 264.398438 320.132812 265.183594 328.964844 260.195312 331.847656 C 255.203125 334.730469 247.84375 329.730469 242.851562 326.851562 C 239.105469 324.695312 233.667969 322 231.183594 318.363281 C 230.355469 317.152344 229.867188 315.808594 229.867188 314.367188 C 229.839844 308.601562 237.859375 304.800781 242.851562 301.929688 C 246.59375 299.773438 251.628906 296.367188 256.015625 296.027344 Z M 193.59375 297.207031 C 193.160156 297.207031 192.742188 297.472656 192.457031 297.84375 C 192.171875 298.214844 192.003906 298.679688 192.003906 299.25 L 192.003906 329.484375 C 192.003906 330.054688 192.179688 330.566406 192.457031 330.9375 C 192.742188 331.308594 193.15625 331.527344 193.59375 331.527344 L 201.71875 331.527344 L 201.71875 297.207031 Z M 202.492188 297.207031 L 202.546875 331.527344 L 209.269531 331.527344 L 209.269531 297.207031 Z M 210.074219 297.207031 L 210.128906 331.527344 L 221.117188 331.574219 L 221.117188 297.207031 L 210.070312 297.207031 Z M 210.074219 297.207031 " fill-opacity="1" fill-rule="nonzero"/></g><g clip-path="url(#3535edacc4)"><path fill="#afee00" d="M 247.464844 201.917969 C 247.464844 203.882812 247.371094 205.84375 247.179688 207.796875 C 246.984375 209.753906 246.699219 211.691406 246.3125 213.621094 C 245.929688 215.546875 245.453125 217.449219 244.882812 219.328125 C 244.3125 221.207031 243.652344 223.054688 242.902344 224.871094 C 242.148438 226.683594 241.3125 228.457031 240.386719 230.191406 C 239.460938 231.921875 238.449219 233.605469 237.359375 235.238281 C 236.269531 236.871094 235.101562 238.445312 233.855469 239.964844 C 232.609375 241.484375 231.289062 242.9375 229.902344 244.324219 C 228.511719 245.714844 227.058594 247.03125 225.539062 248.277344 C 224.023438 249.523438 222.445312 250.691406 220.8125 251.785156 C 219.179688 252.875 217.5 253.882812 215.765625 254.808594 C 214.035156 255.734375 212.261719 256.574219 210.445312 257.324219 C 208.632812 258.078125 206.785156 258.738281 204.90625 259.308594 C 203.023438 259.878906 201.121094 260.355469 199.195312 260.738281 C 197.269531 261.121094 195.328125 261.410156 193.375 261.601562 C 191.417969 261.792969 189.460938 261.890625 187.496094 261.890625 C 185.53125 261.890625 183.574219 261.792969 181.617188 261.601562 C 179.664062 261.410156 177.722656 261.121094 175.796875 260.738281 C 173.871094 260.355469 171.96875 259.878906 170.085938 259.308594 C 168.207031 258.738281 166.359375 258.078125 164.546875 257.324219 C 162.730469 256.574219 160.957031 255.734375 159.226562 254.808594 C 157.492188 253.882812 155.8125 252.875 154.179688 251.785156 C 152.542969 250.691406 150.96875 249.523438 149.449219 248.277344 C 147.933594 247.03125 146.480469 245.714844 145.089844 244.324219 C 143.703125 242.9375 142.382812 241.484375 141.136719 239.964844 C 139.890625 238.445312 138.722656 236.871094 137.632812 235.238281 C 136.539062 233.605469 135.53125 231.921875 134.605469 230.191406 C 133.679688 228.457031 132.84375 226.683594 132.089844 224.871094 C 131.339844 223.054688 130.675781 221.207031 130.109375 219.328125 C 129.539062 217.449219 129.0625 215.546875 128.675781 213.621094 C 128.292969 211.691406 128.007812 209.753906 127.8125 207.796875 C 127.621094 205.84375 127.523438 203.882812 127.523438 201.917969 C 127.523438 199.957031 127.621094 197.996094 127.8125 196.042969 C 128.007812 194.085938 128.292969 192.148438 128.675781 190.21875 C 129.0625 188.292969 129.539062 186.390625 130.109375 184.511719 C 130.675781 182.632812 131.339844 180.785156 132.089844 178.96875 C 132.84375 177.15625 133.679688 175.382812 134.605469 173.648438 C 135.53125 171.917969 136.539062 170.234375 137.632812 168.601562 C 138.722656 166.96875 139.890625 165.394531 141.136719 163.875 C 142.382812 162.355469 143.703125 160.902344 145.089844 159.515625 C 146.480469 158.125 147.933594 156.808594 149.449219 155.5625 C 150.96875 154.316406 152.542969 153.148438 154.179688 152.054688 C 155.8125 150.964844 157.492188 149.957031 159.226562 149.03125 C 160.957031 148.105469 162.730469 147.265625 164.546875 146.515625 C 166.359375 145.761719 168.207031 145.101562 170.085938 144.53125 C 171.96875 143.960938 173.871094 143.484375 175.796875 143.101562 C 177.722656 142.71875 179.664062 142.429688 181.617188 142.238281 C 183.574219 142.046875 185.53125 141.949219 187.496094 141.949219 C 189.460938 141.949219 191.417969 142.046875 193.375 142.238281 C 195.328125 142.429688 197.269531 142.71875 199.195312 143.101562 C 201.121094 143.484375 203.023438 143.960938 204.90625 144.53125 C 206.785156 145.101562 208.632812 145.761719 210.445312 146.515625 C 212.261719 147.265625 214.035156 148.105469 215.765625 149.03125 C 217.5 149.957031 219.179688 150.964844 220.8125 152.054688 C 222.445312 153.148438 224.023438 154.316406 225.539062 155.5625 C 227.058594 156.808594 228.511719 158.125 229.902344 159.515625 C 231.289062 160.902344 232.609375 162.355469 233.855469 163.875 C 235.101562 165.394531 236.269531 166.96875 237.359375 168.601562 C 238.449219 170.234375 239.460938 171.917969 240.386719 173.648438 C 241.3125 175.382812 242.148438 177.15625 242.902344 178.96875 C 243.652344 180.785156 244.3125 182.632812 244.882812 184.511719 C 245.453125 186.390625 245.929688 188.292969 246.3125 190.21875 C 246.699219 192.148438 246.984375 194.085938 247.179688 196.042969 C 247.371094 197.996094 247.464844 199.957031 247.464844 201.917969 Z M 247.464844 201.917969 " fill-opacity="1" fill-rule="nonzero"/></g><path fill="#003539" d="M 237.273438 201.917969 C 237.273438 203.550781 237.191406 205.175781 237.03125 206.796875 C 236.871094 208.421875 236.632812 210.03125 236.316406 211.628906 C 235.996094 213.230469 235.601562 214.808594 235.128906 216.367188 C 234.65625 217.929688 234.105469 219.460938 233.484375 220.96875 C 232.859375 222.472656 232.164062 223.945312 231.394531 225.382812 C 230.625 226.820312 229.789062 228.21875 228.882812 229.574219 C 227.976562 230.929688 227.007812 232.238281 225.972656 233.496094 C 224.9375 234.757812 223.84375 235.964844 222.691406 237.117188 C 221.539062 238.269531 220.332031 239.363281 219.074219 240.398438 C 217.8125 241.429688 216.503906 242.402344 215.148438 243.308594 C 213.792969 244.210938 212.398438 245.050781 210.960938 245.816406 C 209.523438 246.585938 208.050781 247.28125 206.542969 247.90625 C 205.039062 248.53125 203.503906 249.078125 201.945312 249.550781 C 200.386719 250.027344 198.804688 250.421875 197.207031 250.738281 C 195.609375 251.058594 193.996094 251.296875 192.375 251.457031 C 190.753906 251.617188 189.125 251.695312 187.496094 251.695312 C 185.867188 251.695312 184.238281 251.617188 182.617188 251.457031 C 180.996094 251.296875 179.382812 251.058594 177.785156 250.738281 C 176.1875 250.421875 174.605469 250.027344 173.046875 249.550781 C 171.488281 249.078125 169.953125 248.53125 168.449219 247.90625 C 166.941406 247.28125 165.46875 246.585938 164.03125 245.816406 C 162.59375 245.050781 161.199219 244.210938 159.84375 243.308594 C 158.488281 242.402344 157.179688 241.429688 155.917969 240.398438 C 154.660156 239.363281 153.453125 238.269531 152.300781 237.117188 C 151.144531 235.964844 150.054688 234.757812 149.019531 233.496094 C 147.984375 232.238281 147.015625 230.929688 146.109375 229.574219 C 145.203125 228.21875 144.367188 226.820312 143.597656 225.382812 C 142.828125 223.945312 142.132812 222.472656 141.507812 220.96875 C 140.886719 219.460938 140.335938 217.929688 139.863281 216.367188 C 139.390625 214.808594 138.996094 213.230469 138.675781 211.628906 C 138.359375 210.03125 138.121094 208.421875 137.960938 206.796875 C 137.800781 205.175781 137.71875 203.550781 137.71875 201.917969 C 137.71875 200.289062 137.800781 198.664062 137.960938 197.039062 C 138.121094 195.417969 138.359375 193.808594 138.675781 192.210938 C 138.996094 190.609375 139.390625 189.03125 139.863281 187.472656 C 140.335938 185.910156 140.886719 184.378906 141.507812 182.871094 C 142.132812 181.367188 142.828125 179.894531 143.597656 178.457031 C 144.367188 177.019531 145.203125 175.621094 146.109375 174.265625 C 147.015625 172.910156 147.984375 171.601562 149.019531 170.34375 C 150.054688 169.082031 151.144531 167.875 152.300781 166.722656 C 153.453125 165.570312 154.660156 164.476562 155.917969 163.441406 C 157.179688 162.410156 158.488281 161.4375 159.84375 160.53125 C 161.199219 159.628906 162.59375 158.789062 164.03125 158.023438 C 165.46875 157.253906 166.941406 156.558594 168.449219 155.933594 C 169.953125 155.308594 171.488281 154.761719 173.046875 154.289062 C 174.605469 153.8125 176.1875 153.417969 177.785156 153.101562 C 179.382812 152.78125 180.996094 152.542969 182.617188 152.382812 C 184.238281 152.222656 185.867188 152.144531 187.496094 152.144531 C 189.125 152.144531 190.753906 152.222656 192.375 152.382812 C 193.996094 152.542969 195.609375 152.78125 197.207031 153.101562 C 198.804688 153.417969 200.386719 153.8125 201.945312 154.289062 C 203.503906 154.761719 205.039062 155.308594 206.542969 155.933594 C 208.050781 156.558594 209.523438 157.253906 210.960938 158.023438 C 212.398438 158.789062 213.792969 159.628906 215.148438 160.53125 C 216.503906 161.4375 217.8125 162.410156 219.074219 163.441406 C 220.332031 164.476562 221.539062 165.570312 222.691406 166.722656 C 223.84375 167.875 224.9375 169.082031 225.972656 170.34375 C 227.007812 171.601562 227.976562 172.910156 228.882812 174.265625 C 229.789062 175.621094 230.625 177.019531 231.394531 178.457031 C 232.164062 179.894531 232.859375 181.367188 233.484375 182.871094 C 234.105469 184.378906 234.65625 185.910156 235.128906 187.472656 C 235.601562 189.03125 235.996094 190.609375 236.316406 192.210938 C 236.632812 193.808594 236.871094 195.417969 237.03125 197.039062 C 237.191406 198.664062 237.273438 200.289062 237.273438 201.917969 Z M 237.273438 201.917969 " fill-opacity="1" fill-rule="nonzero"/><path fill="#afee00" d="M 183.734375 230.894531 L 183.734375 224.144531 C 178.96875 223.933594 174.359375 222.652344 171.65625 221.085938 L 173.785156 212.785156 C 176.773438 214.417969 180.957031 215.914062 185.566406 215.914062 C 189.613281 215.914062 192.386719 214.347656 192.386719 211.515625 C 192.386719 208.824219 190.117188 207.117188 184.863281 205.339844 C 177.265625 202.765625 172.089844 199.226562 172.089844 192.335938 C 172.089844 186.09375 176.488281 181.1875 184.097656 179.695312 L 184.097656 172.945312 L 191.058594 172.945312 L 191.058594 179.191406 C 195.820312 179.402344 199.007812 180.402344 201.359375 181.53125 L 199.300781 189.550781 C 197.457031 188.773438 194.1875 187.140625 189.070312 187.140625 C 184.460938 187.140625 182.96875 189.125 182.96875 191.113281 C 182.96875 193.453125 185.449219 194.945312 191.492188 197.214844 C 199.949219 200.203125 203.347656 204.105469 203.347656 210.492188 C 203.347656 216.808594 198.878906 222.203125 190.707031 223.625 L 190.707031 230.871094 L 183.734375 230.871094 Z M 183.734375 230.894531 " fill-opacity="1" fill-rule="nonzero"/></svg>