<svg id="_0245_recycling_4" xmlns="http://www.w3.org/2000/svg" viewBox="0 0 500 500" data-imageid="recycling-4-59" imagename="Recycling 4" class="illustrations_image" style="width: 188px;" height="100px" width="100px" transform="rotate(0) scale(1, 1)"><defs><style>.cls-1_recycling-4-59 { fill: #ffffff; }.cls-2_recycling-4-59 { fill: #f4a28c; }.cls-3_recycling-4-59 { opacity: 0.37; }.cls-3_recycling-4-59, .cls-4_recycling-4-59, .cls-5_recycling-4-59, .cls-6_recycling-4-59 { }.cls-4_recycling-4-59 { opacity: 0.18; }.cls-7_recycling-4-59 { fill: #e6e6e6; }.cls-5_recycling-4-59 { opacity: 0.3; }.cls-8_recycling-4-59 { fill: #003539; }.cls-9_recycling-4-59 { fill: #000001; }.cls-10_recycling-4-59 { fill: #ffd200; }.cls-6_recycling-4-59 { opacity: 0.1; }.cls-11_recycling-4-59 { fill: #68e1fd; }</style></defs><g id="bg_recycling-4-59" class="cls-5_recycling-4-59"><path class="cls-7_recycling-4-59" d="m125.54,106.93C28.9,153.36-4.98,279.4,55.24,370.06c27.05,40.71,75.23,74.81,160.72,75.34,240.92,1.52,267.66-118.56,256.85-217.13-11.22-102.42-213.48-185.61-347.28-121.34Z"/></g><g id="box_recycling-4-59"><path class="cls-8_recycling-4-59" d="m193.43,101.55s-4.26-19.26,20.89-36.21c25.14-16.95,23.57,15.11,54.1,0,30.52-15.11,47.51-41.48,80.41-20.63s21.86,40.07,54.97,38.74,39.86,33.62,23.3,49.57c-16.56,15.94-233.67-31.46-233.67-31.46Z"/><rect class="cls-10_recycling-4-59" x="237.87" y="114.08" width="194.54" height="194.54" transform="translate(19.31 -27.89) rotate(4.91)"/><g class="cls-6_recycling-4-59"><rect class="cls-9_recycling-4-59" x="237.87" y="114.08" width="194.54" height="194.54" transform="translate(19.31 -27.89) rotate(4.91)"/></g><rect class="cls-10_recycling-4-59" x="171.14" y="108.35" width="194.54" height="194.54" transform="translate(18.57 -22.21) rotate(4.91)"/><path class="cls-1_recycling-4-59" d="m289.62,196.58c2.58.73,5.31-.54,6.41-2.99l5.74-12.77c.51-1.13-.66-2.29-1.79-1.76l-3.62,1.7-7.74-16.53c-.95-2.04-2.92-3.41-5.17-3.6l-14-1.2c-2.24-.19-4.42.83-5.7,2.67l-11.21,16.07c-.99,1.41-.64,3.36.77,4.35l10.03,7c1.41.99,3.36.64,4.35-.77l7.18-10.3,4.76,10.16-3.63,1.7c-1.12.53-.99,2.16.2,2.5l13.42,3.79Z"/><path class="cls-1_recycling-4-59" d="m316.36,228.44c1.27-1.86,1.46-4.25.49-6.28l-8.44-17.67c-.74-1.56-2.61-2.22-4.16-1.47l-11.04,5.27c-1.56.74-2.22,2.61-1.47,4.16l5.41,11.33-11.18-.88.31-4c.1-1.24-1.39-1.93-2.27-1.06l-9.92,9.81c-1.91,1.89-2.15,4.88-.56,7.05l8.27,11.29c.73,1,2.32.55,2.41-.69l.31-3.99,18.2,1.43c2.24.18,4.41-.86,5.68-2.71l7.96-11.59Z"/><path class="cls-1_recycling-4-59" d="m256.44,220.44l-12.5-1.12,6.46-9.17,3.28,2.31c1.01.71,2.37-.22,2.07-1.42l-3.38-13.53c-.65-2.6-3.11-4.34-5.78-4.08l-13.93,1.35c-1.23.12-1.66,1.71-.64,2.43l3.27,2.3-10.51,14.93c-1.3,1.84-1.51,4.23-.57,6.27l5.91,12.76c.95,2.04,2.91,3.42,5.15,3.63l19.51,1.75c1.72.16,3.24-1.11,3.39-2.83l1.1-12.18c.16-1.72-1.11-3.24-2.83-3.39h0Z"/><g class="cls-3_recycling-4-59"><rect class="cls-1_recycling-4-59" x="255.66" y="108.94" width="46.56" height="23.4" transform="translate(11.34 -23.42) rotate(4.91)"/></g><g class="cls-3_recycling-4-59"><rect class="cls-1_recycling-4-59" x="319.31" y="268.16" width="25.76" height="25.76" transform="translate(25.26 -27.39) rotate(4.91)"/></g></g><g id="hand_recycling-4-59"><path class="cls-2_recycling-4-59" d="m341.39,366.83s32.25-16.24,12.24-31.62c-20.01-15.38-49.57,4.27-64.74,19.29-15.17,15.03-25.77,46.81,52.49,12.32Z"/><g class="cls-4_recycling-4-59"><path class="cls-9_recycling-4-59" d="m341.39,366.83s32.25-16.24,12.24-31.62c-20.01-15.38-49.57,4.27-64.74,19.29-15.17,15.03-25.77,46.81,52.49,12.32Z"/></g><path class="cls-2_recycling-4-59" d="m296.6,364.32s47.47-38.16,67.49-36.85c20.02,1.31,26.91,10.4,11.95,22.84-14.96,12.44-79.44,14.01-79.44,14.01Z"/><g class="cls-6_recycling-4-59"><path class="cls-9_recycling-4-59" d="m296.6,364.32s47.47-38.16,67.49-36.85c20.02,1.31,26.91,10.4,11.95,22.84-14.96,12.44-79.44,14.01-79.44,14.01Z"/></g><polygon class="cls-11_recycling-4-59 targetColor" points="203.62 430.13 48.45 463 29.07 353.12 186.73 334.35 203.62 430.13" style="fill: rgb(0, 53, 57);"/><path class="cls-2_recycling-4-59" d="m188.85,346.36s65.6-58.6,91.71-58.08c26.11.51,18.03,31.49-1.47,42.16-19.5,10.68-12.64,49.26,28.44,29.8,41.08-19.46,78.89-27.27,92.47-27.99,12.26-.65,29.96,27.63-9.96,36.89-39.92,9.25-84.01,66.93-187.98,52.13l-13.21-74.91Z"/><g class="cls-6_recycling-4-59"><polygon class="cls-9_recycling-4-59" points="41.8 425.27 197.21 393.76 203.62 430.13 48.45 463 41.8 425.27"/></g></g></svg>