<svg version="1.1" id="Layer_1" xmlns="http://www.w3.org/2000/svg" xmlns:xlink="http://www.w3.org/1999/xlink" x="0px" y="0px" viewBox="0 0 500 500" style="width: 188px;" xml:space="preserve" data-imageid="recycling-1-6" imagename="Recycling 1" class="illustrations_image" height="100px" width="100px" transform="rotate(0) scale(1, 1)">
<style type="text/css">.st0_recycling-1-6 { fill: #d1d3d4; }.st1_recycling-1-6 { fill: #ffffff; }.st2_recycling-1-6 { fill: #003539; }.st3_recycling-1-6 { fill: #68e1fd; }</style>
<path id="Background_plant_recycling-1-6" class="st0_recycling-1-6" d="M257.1,371.3c-0.2,0-0.5-0.1-0.6-0.3c-12.2-18.3-36.9-23.2-55.2-11c-2.6,1.7-5,3.8-7.1,6&#xA;&#9;c-0.2,0.2-0.5,0.3-0.7,0.2c-0.3-0.1-0.4-0.3-0.5-0.5c-1.1-6.4-5.6-12.1-12.2-15.4s-13.9-3.4-19.6-0.4c-0.2,0.1-0.4,0.1-0.6,0&#xA;&#9;c-0.2-0.1-0.3-0.2-0.4-0.4c-4.1-12.7-15.3-21.9-27.1-22.5c-6.7-0.2-13.3,2.4-18,7.2c-4.3,4.3-6.5,9.6-6.3,15c0,0.3-0.2,0.6-0.4,0.7&#xA;&#9;c-0.3,0.1-0.6,0-0.8-0.2c-5.4-6.4-14.8-7.2-21.2-1.8c-5.1,4.3-6.8,11.5-4.1,17.6c0.2,0.4,0,0.8-0.4,0.9c-0.4,0.2-0.8,0-0.9-0.4&#xA;&#9;c-3.6-8.3,0.2-18,8.5-21.7c6.1-2.6,13.1-1.4,17.9,3.1c0.3-5.4,2.7-10.6,6.7-14.3c5-5.1,11.9-7.9,19.1-7.7&#xA;&#9;c12.1,0.6,23.6,9.9,28.1,22.7c6-2.8,13.4-2.5,20.1,0.8c6.5,3.2,11.1,8.8,12.7,15c16-16.2,42.1-16.3,58.2-0.3c2,1.9,3.7,4.1,5.3,6.4&#xA;&#9;c0.2,0.3,0.2,0.8-0.2,1c0,0,0,0,0,0C257.4,371.3,257.3,371.3,257.1,371.3z"/>
<path id="Ground_recycling-1-6" class="st0_recycling-1-6" d="M428.7,381H71.3c-0.4,0-0.7-0.3-0.7-0.7c0-0.4,0.3-0.7,0.7-0.7h357.4c0.4,0,0.7,0.3,0.7,0.7&#xA;&#9;C429.4,380.7,429.1,381,428.7,381z"/>
<g id="Character_recycling-1-6">
	<path class="st1_recycling-1-6" d="M158.3,401.4c0,0,0.3,6.3,0,10.8s-2.2,7.3-7.6,8.8S137,418.5,136,414s8.4-18,8.4-18L158.3,401.4z"/>
	<path class="st2_recycling-1-6" d="M148.2,422.1c-2.9-0.1-5.7-0.9-8.2-2.4c-2.6-1.6-4.3-3.6-4.8-5.6c-1-4.7,7.5-17.1,8.5-18.5&#xA;&#9;&#9;c0.2-0.3,0.5-0.4,0.9-0.3l13.9,5.4c0.3,0.1,0.4,0.3,0.5,0.6c0,0.1,0.3,6.4,0,10.9c-0.4,5.1-2.8,8-8.1,9.5&#xA;&#9;&#9;C150.1,422,149.2,422.1,148.2,422.1z M144.7,396.9c-2.7,4-8.6,13.6-7.9,16.9c0.3,1.6,1.8,3.3,4.1,4.7c3.2,1.9,7,2.7,9.7,1.9&#xA;&#9;&#9;c4.8-1.4,6.7-3.7,7.1-8.2c0.2-3.7,0.1-8.7,0-10.3L144.7,396.9z"/>
	<path class="st1_recycling-1-6" d="M208.1,401.4c0,0-0.3,6.3,0,10.8s2.2,7.3,7.6,8.8s13.8-2.6,14.7-7.1s-8.4-18-8.4-18L208.1,401.4z"/>
	<path class="st2_recycling-1-6" d="M218.2,422.1c-0.9,0-1.8-0.1-2.7-0.4c-5.3-1.5-7.8-4.4-8.1-9.5c-0.3-4.5,0-10.9,0-10.9c0-0.3,0.2-0.5,0.5-0.6&#xA;&#9;&#9;l13.9-5.4c0.3-0.1,0.7,0,0.9,0.3c1,1.4,9.4,13.9,8.5,18.5c-0.4,2-2.1,4-4.7,5.6C223.9,421.2,221.1,422.1,218.2,422.1z M208.8,401.9&#xA;&#9;&#9;c-0.1,1.5-0.2,6.6,0,10.3c0.3,4.5,2.3,6.8,7.1,8.2c2.7,0.8,6.5,0,9.7-1.9c2.3-1.4,3.8-3.1,4.1-4.7c0.7-3.3-5.2-12.9-7.9-16.9&#xA;&#9;&#9;L208.8,401.9z"/>
	<path class="st2_recycling-1-6" d="M138.1,396.3c0,0,11.2,10.5,22.9,2.5l25.7-115.1l19.5,115.9c0,0,10.8,8.9,23.8-2.2l-8.4-138l-80.1,2.6&#xA;&#9;&#9;L138.1,396.3z"/>
	<path class="st2_recycling-1-6" d="M216.5,403.7c-3.9,0-7.6-1.2-10.8-3.5c-0.1-0.1-0.2-0.3-0.2-0.4l-18.9-112.4L161.7,399c0,0.2-0.1,0.3-0.3,0.4&#xA;&#9;&#9;c-12.1,8.3-23.7-2.4-23.8-2.5c-0.1-0.1-0.2-0.3-0.2-0.5l3.4-134.4c0-0.4,0.3-0.7,0.7-0.7l80.1-2.5c0.4,0,0.7,0.3,0.7,0.7l8.4,138&#xA;&#9;&#9;c0,0.2-0.1,0.4-0.2,0.6C225.3,402.3,220.5,403.7,216.5,403.7z M206.8,399.2c1.5,1.1,11,7.5,22.4-2.1l-8.4-136.9l-78.8,2.5&#xA;&#9;&#9;L138.8,396c1.6,1.4,11.3,9.2,21.6,2.4L186,283.5c0.1-0.3,0.4-0.5,0.7-0.5c0.3,0,0.6,0.3,0.7,0.6L206.8,399.2z"/>
	<path class="st2_recycling-1-6" d="M199.4,147c0,0-22.6-1.3-35.4,0c-8.7,7.8-22.5,115-22.5,115l74.9,3C216.3,265,215.7,164.3,199.4,147z"/>
	<path class="st2_recycling-1-6" d="M216.3,265.7L216.3,265.7l-74.9-3c-0.2,0-0.4-0.1-0.5-0.2c-0.1-0.1-0.2-0.3-0.2-0.5&#xA;&#9;&#9;c0.6-4.4,13.9-107.5,22.8-115.4c0.1-0.1,0.3-0.2,0.4-0.2c12.6-1.3,35.2,0,35.5,0c0.2,0,0.3,0.1,0.5,0.2&#xA;&#9;&#9;c6.9,7.3,11.9,29.4,14.8,65.9c2.2,27,2.3,52.3,2.4,52.6c0,0.2-0.1,0.4-0.2,0.5C216.7,265.6,216.5,265.7,216.3,265.7z M142.2,261.3&#xA;&#9;&#9;l73.4,3c-0.1-9.1-1.5-99.9-16.6-116.6c-2.6-0.1-22.9-1.2-34.7,0C157.6,154.6,147,224.4,142.2,261.3z"/>
	<path class="st1_recycling-1-6" d="M174.1,229.2c-1.2-2.5-5.5-1.2-5.5-4.5v-21.3h0.8v-3.6h-7.6v3.6h0.8v21.3c0,3.2-4.2,1.9-5.5,4.5&#xA;&#9;&#9;s-0.4,21.2-0.4,21.2h18C174.6,250.4,175.4,231.8,174.1,229.2z"/>
	<path class="st2_recycling-1-6" d="M174.6,251.1h-18c-0.4,0-0.7-0.3-0.7-0.7c-0.1-1.9-0.8-18.9,0.5-21.6c0.7-1.4,2.1-1.8,3.2-2.2&#xA;&#9;&#9;c1.5-0.4,2.2-0.7,2.2-1.9v-20.6c-0.4,0-0.7-0.3-0.7-0.7v-3.6c0-0.4,0.3-0.7,0.7-0.7h7.6c0.4,0,0.7,0.3,0.7,0.7v3.6&#xA;&#9;&#9;c0,0.4-0.3,0.7-0.7,0.7h-0.1v20.6c0,1.2,0.7,1.5,2.2,1.9c1.2,0.4,2.6,0.8,3.2,2.2l0,0c1.3,2.6,0.6,19.6,0.5,21.6&#xA;&#9;&#9;C175.3,250.9,175,251.1,174.6,251.1z M157.3,249.7h16.6c0.3-7.4,0.4-18.5-0.4-20.2l0,0c-0.4-0.9-1.4-1.2-2.4-1.5&#xA;&#9;&#9;c-1.4-0.4-3.1-1-3.1-3.3v-21.3c0-0.4,0.3-0.7,0.7-0.7h0.1v-2.2h-6.2l0.1,2.2c0.4,0,0.7,0.3,0.7,0.7v21.3c0,2.3-1.7,2.9-3.1,3.3&#xA;&#9;&#9;c-1,0.3-2,0.6-2.4,1.5C156.8,231.2,157,242.3,157.3,249.7z"/>
	<path class="st1_recycling-1-6" d="M199.2,224.4c-1.7-2.1-7.5-1-7.5-3.8v-12.7h-8.3v12.7c0,2.8-5.8,1.6-7.4,3.8s-0.6,18-0.6,18h24.4&#xA;&#9;&#9;C199.8,242.4,200.9,226.6,199.2,224.4z"/>
	<path class="st2_recycling-1-6" d="M199.8,243.1h-24.4c-0.4,0-0.7-0.3-0.7-0.6c-0.2-2.7-1-16.2,0.7-18.5c0.9-1.2,2.6-1.5,4.3-1.8&#xA;&#9;&#9;c1.9-0.4,3-0.7,3-1.5v-12.7c0-0.4,0.3-0.7,0.7-0.7h8.3c0.4,0,0.7,0.3,0.7,0.7v12.7c0,0.9,1.1,1.2,3,1.5c1.6,0.3,3.3,0.7,4.3,1.8&#xA;&#9;&#9;c1.8,2.2,0.9,15.8,0.7,18.5C200.4,242.8,200.1,243.1,199.8,243.1z M176,241.7h23.1c0.4-6.1,0.6-15.5-0.5-16.9c-0.6-0.8-2-1-3.4-1.3&#xA;&#9;&#9;c-2-0.4-4.2-0.8-4.2-2.9v-12h-6.9v12c0,2.1-2.2,2.5-4.2,2.9c-1.4,0.3-2.8,0.6-3.4,1.3C175.5,226.2,175.6,235.6,176,241.7z"/>
	<path class="st1_recycling-1-6" d="M233.5,232c-1-2.1-4.6-1-4.6-3.7v-12.5h-5.1v12.5c0,2.7-3.5,1.6-4.6,3.7s-0.4,17.7-0.4,17.7h15&#xA;&#9;&#9;C233.9,249.7,234.5,234.1,233.5,232z"/>
	<path class="st2_recycling-1-6" d="M233.9,250.4h-15c-0.4,0-0.7-0.3-0.7-0.7c-0.1-1.6-0.6-15.8,0.4-18c0.6-1,1.6-1.7,2.8-1.9&#xA;&#9;&#9;c1.3-0.4,1.7-0.6,1.7-1.5v-12.6c0-0.4,0.3-0.7,0.7-0.7h5.1c0.4,0,0.7,0.3,0.7,0.7v12.5c0,0.9,0.4,1.1,1.7,1.5&#xA;&#9;&#9;c1.2,0.2,2.2,0.9,2.8,1.9l0,0c1.1,2.2,0.5,16.4,0.4,18C234.6,250.1,234.3,250.4,233.9,250.4z M219.6,249h13.6&#xA;&#9;&#9;c0.2-6,0.4-15.3-0.3-16.7c-0.3-0.7-1.1-0.9-1.9-1.2c-1.1-0.4-2.7-0.9-2.7-2.9v-11.8h-3.7v11.8c0,2-1.6,2.5-2.7,2.9&#xA;&#9;&#9;c-0.9,0.3-1.6,0.5-1.9,1.2C219.2,233.7,219.3,243,219.6,249z"/>
	<path class="st1_recycling-1-6" d="M201.6,118.1c-0.5,0,0.7-5.3,0.8-5.6c0.4-2.4,1.3-5.1,1.6-7.5c1.7-13.3-6.1-17.7-6.1-17.7&#xA;&#9;&#9;c0.6-1.3,1-2.7,1.2-4.1l-6.3,0.7l1.7-5.3l-32.9,12.5c-0.6,0.2-1.1,0.5-1.5,0.9c-0.3,0.4-0.5,0.9-0.5,1.4c-1.8,9.4-1,18.9,1.2,28.2&#xA;&#9;&#9;L201.6,118.1z"/>
	<path class="st2_recycling-1-6" d="M161,122.3c-0.3,0-0.6-0.2-0.7-0.6c-2.5-10.3-2.9-19.8-1.2-28.5c0.1-0.6,0.3-1.2,0.7-1.7&#xA;&#9;&#9;c0.5-0.5,1.1-0.9,1.8-1.1l32.9-12.5c0.4-0.1,0.8,0,0.9,0.4c0.1,0.2,0.1,0.3,0,0.5l-1.3,4.3l5.2-0.6c0.4,0,0.8,0.3,0.8,0.7&#xA;&#9;&#9;c0,0,0,0.1,0,0.1c-0.2,1.3-0.6,2.6-1.1,3.8c1.8,1.3,7.4,6.3,5.9,18.1c-0.2,1.5-0.6,3-1,4.5c-0.3,1-0.5,2-0.7,3l-0.1,0.3&#xA;&#9;&#9;c-0.4,1.6-0.7,3.2-0.8,4.8c0.1,0.1,0.1,0.2,0.1,0.3c0,0.4-0.3,0.7-0.7,0.8l0,0L161,122.3z M193.5,79.8l-31.5,12&#xA;&#9;&#9;c-0.4,0.1-0.8,0.4-1.2,0.7c-0.2,0.3-0.3,0.7-0.4,1.1c-1.6,8.2-1.2,17.4,1.1,27.2l39.2-3.3c0.2-1.6,0.5-3.2,0.8-4.8l0.1-0.3&#xA;&#9;&#9;c0.2-1,0.4-2,0.7-3.1c0.4-1.4,0.7-2.9,0.9-4.3c1.6-12.6-5.4-16.8-5.7-17c-0.3-0.2-0.4-0.6-0.3-0.9c0.4-1,0.7-2,1-3l-5.3,0.6&#xA;&#9;&#9;c-0.4,0-0.7-0.2-0.8-0.6c0-0.1,0-0.2,0-0.3L193.5,79.8z"/>
	<path class="st1_recycling-1-6" d="M195.6,117.4c1.1-6.9,12.6-8.6,12-0.5c-0.1,2.8-1.2,5.5-3.1,7.7c-2,2.1-5,2.8-7.7,1.8"/>
	<path class="st2_recycling-1-6" d="M199.2,127.7c-0.9,0-1.8-0.2-2.7-0.6c-0.4-0.1-0.5-0.6-0.4-0.9c0,0,0,0,0-0.1c0.2-0.4,0.6-0.5,1-0.4&#xA;&#9;&#9;c0,0,0,0,0,0c2.4,0.9,5.1,0.2,6.9-1.7c1.8-2,2.8-4.5,2.9-7.2c0.2-2.7-1.1-4.4-3.4-4.6c-3.4-0.3-6.5,1.9-7.2,5.3&#xA;&#9;&#9;c-0.1,0.4-0.4,0.7-0.8,0.6s-0.7-0.4-0.6-0.8c0.8-4.1,4.6-6.9,8.8-6.5c2.4,0.3,5,2,4.7,6.2c-0.1,3-1.3,5.9-3.3,8.1&#xA;&#9;&#9;C203.5,126.7,201.4,127.6,199.2,127.7z"/>
	<path class="st1_recycling-1-6" d="M167,117.4c-1.1-6.9-12.6-8.6-12-0.5c0.1,2.8,1.2,5.5,3.1,7.7c2,2.1,5,2.8,7.7,1.8"/>
	<path class="st2_recycling-1-6" d="M163.3,127.7c-2.2,0-4.3-0.9-5.8-2.5c-2-2.2-3.2-5.1-3.3-8.1c-0.3-4.1,2.2-5.9,4.7-6.2c4.2-0.4,8,2.4,8.8,6.5&#xA;&#9;&#9;c0.1,0.4-0.2,0.8-0.6,0.8c-0.4,0.1-0.8-0.2-0.8-0.6c0,0,0,0,0,0c-0.7-3.3-3.8-5.6-7.2-5.3c-2.4,0.3-3.6,2-3.4,4.6&#xA;&#9;&#9;c0.1,2.7,1.1,5.2,2.9,7.2c1.8,1.9,4.5,2.5,6.9,1.7c0.4-0.2,0.8,0,1,0.4c0.2,0.4,0,0.8-0.4,1C165.2,127.5,164.3,127.7,163.3,127.7z"/>
	<path class="st1_recycling-1-6" d="M168.6,149.3c0,0,2.5,9.5,11.5,9.5s12.6-8.2,12.6-8.2l-0.3-3.4l-0.9-11.2l-0.8-10.5h-20.7l-0.7,8.6l-0.2,2.8&#xA;&#9;&#9;L168.6,149.3z"/>
	<path class="st2_recycling-1-6" d="M180.1,159.5c-9.5,0-12.2-9.9-12.2-10c0-0.1,0-0.1,0-0.2l0.6-12.5l0.9-11.4c0-0.4,0.3-0.7,0.7-0.7h20.7&#xA;&#9;&#9;c0.4,0,0.7,0.3,0.7,0.7l2,25.1c0,0.1,0,0.2,0,0.4C193.4,150.9,189.6,159.5,180.1,159.5z M169.4,149.2c0.3,1,2.8,8.8,10.8,8.8&#xA;&#9;&#9;s11.3-6.5,11.9-7.6l-1.9-24.2h-19.3l-0.9,10.7L169.4,149.2z"/>
	<path class="st2_recycling-1-6" d="M167.8,133.2c0.2,1.3,0.7,2.5,1.4,3.6c1.7,2.5,4.1,4.6,6.8,6c4.4,2.5,11.1,5.2,16.5,4.4l-0.9-11.2&#xA;&#9;&#9;c-4,0.5-8,0.5-11.9,0.1c-3.5-0.3-7.1-0.6-10.3-2C168.9,133.8,168.3,133.5,167.8,133.2z"/>
	<path class="st2_recycling-1-6" d="M190.4,148c-5.5,0-11.5-2.8-14.8-4.6c-2.8-1.4-5.2-3.6-7-6.2c-0.7-1.2-1.2-2.5-1.5-3.8c0-0.3,0.1-0.5,0.3-0.7&#xA;&#9;&#9;c0.2-0.1,0.5-0.1,0.7,0c0.5,0.3,1,0.5,1.6,0.8c3.1,1.3,6.8,1.6,10.1,1.9c3.9,0.4,7.8,0.4,11.8-0.1c0.2,0,0.4,0,0.5,0.1&#xA;&#9;&#9;c0.1,0.1,0.2,0.3,0.2,0.5l0.9,11.2c0,0.4-0.2,0.7-0.6,0.8C191.9,148,191.2,148,190.4,148z M168.9,134.5c0.2,0.7,0.5,1.3,0.9,1.9&#xA;&#9;&#9;c1.7,2.4,3.9,4.4,6.5,5.7c3.4,1.9,9.9,4.9,15.4,4.4l-0.8-9.8c-3.8,0.4-7.6,0.4-11.3,0c-3.3-0.3-7.1-0.6-10.5-2L168.9,134.5z"/>
	<path class="st1_recycling-1-6" d="M179.8,138.6h1.9c8.7,0,15.8-7.1,15.8-15.8v-18.6c0-2.6-2.1-4.8-4.8-4.8c-0.5,0-0.9,0.1-1.4,0.2l-10.6,3.2&#xA;&#9;&#9;l-10.6-3.2c-2.5-0.8-5.2,0.7-5.9,3.2c-0.1,0.4-0.2,0.9-0.2,1.4v18.6C164,131.5,171.1,138.6,179.8,138.6L179.8,138.6z"/>
	<path class="st2_recycling-1-6" d="M192.8,99.3c2.6,0,4.8,2.1,4.8,4.8v18.6c0,8.7-7.1,15.8-15.8,15.8h-1.9c-8.7,0-15.8-7.1-15.8-15.8v-18.6&#xA;&#9;&#9;c0-2.6,2.1-4.8,4.7-4.8h0c0.5,0,0.9,0.1,1.4,0.2l10.6,3.2l10.6-3.2C191.8,99.4,192.3,99.3,192.8,99.3 M192.8,97.9&#xA;&#9;&#9;c-0.6,0-1.2,0.1-1.8,0.3l-10.2,3.1l-10.2-3.1c-3.3-1-6.7,0.9-7.7,4.2c-0.2,0.6-0.3,1.2-0.3,1.8v18.6c0,9.5,7.7,17.2,17.3,17.3h1.9&#xA;&#9;&#9;c9.6,0,17.3-7.7,17.3-17.3v-18.6C199,100.7,196.2,97.9,192.8,97.9L192.8,97.9L192.8,97.9z"/>
	<path class="st2_recycling-1-6" d="M181,123.2c-0.8,0-1.5,0-2.3-0.1c-0.4,0-0.8-0.3-1-0.7c-1.2-2,1.6-9.8,2.5-12.2c0.1-0.4,0.6-0.6,0.9-0.4&#xA;&#9;&#9;c0.4,0.1,0.6,0.6,0.4,0.9l0,0c-2,5.2-3.2,10.2-2.6,10.9c1.4,0.1,2.9,0.1,4.3,0c0.4,0,0.8,0.2,0.8,0.6c0.1,0.4-0.2,0.8-0.6,0.8&#xA;&#9;&#9;c0,0,0,0,0,0C183.4,123.1,182.4,123.2,181,123.2z"/>
	<path class="st2_recycling-1-6" d="M181.9,133.4c-2.3-0.1-4.6-0.8-6.6-1.9c-0.4-0.2-0.5-0.6-0.3-1c0.2-0.4,0.6-0.5,1-0.3c0,0,0,0,0,0&#xA;&#9;&#9;c3.1,1.6,5.8,2.1,8,1.4c1.3-0.4,2.3-1.2,3-2.4c0.2-0.4,0.6-0.5,1-0.3c0,0,0,0,0,0c0.4,0.2,0.5,0.6,0.4,0.9c0,0,0,0,0,0.1&#xA;&#9;&#9;c-0.8,1.5-2.2,2.6-3.9,3.1C183.6,133.3,182.7,133.5,181.9,133.4z"/>
	
		<ellipse transform="matrix(0.9978 -6.592560e-02 6.592560e-02 0.9978 -6.7766 12.6269)" class="st2_recycling-1-6" cx="187.9" cy="109" rx="0.9" ry="2.2"/>
	
		<ellipse transform="matrix(0.9978 -6.592560e-02 6.592560e-02 0.9978 -6.8744 11.6981)" class="st2_recycling-1-6" cx="173.8" cy="110" rx="0.9" ry="2.2"/>
	<path class="st1_recycling-1-6" d="M217,239.1c-0.2-2.2-0.6-4.4-1.3-6.5c-0.3-0.8-0.4-1.6-0.4-2.4c0-1.1,0.3-2.1,0.8-3c0.8-1.5,1-3.2,0.8-4.8&#xA;&#9;&#9;c-0.3-2.6-1.4-4.6-3.9-5.6c-0.6-0.2-0.8-0.5-0.7-1.1c0,0,0.1-3.2,0-3.2s-5.4,0-5.4,0v3.2l0,0c0.1,0.6-0.1,0.9-0.7,1.1&#xA;&#9;&#9;c-1.6,0.6-2.8,1.9-3.4,3.5c-1,2.3-0.9,4.9,0.2,7.1c0.5,0.9,0.8,2,0.8,3c0,0.8-0.1,1.5-0.4,2.2c-0.7,2.2-1.2,4.4-1.4,6.7&#xA;&#9;&#9;c-0.2,2.2-0.2,4.4-0.1,6.5c-0.1,1.3,1,2.5,2.3,2.6c0.1,0,0.3,0,0.4,0h9.7c1.3,0.2,2.5-0.8,2.7-2.1c0-0.2,0-0.3,0-0.5&#xA;&#9;&#9;C217.2,243.5,217.2,241.2,217,239.1z"/>
	<path class="st2_recycling-1-6" d="M209.5,248.8h-4.9c-1.7,0.2-3.2-1.1-3.4-2.8c0-0.1,0-0.2,0-0.4c-0.1-2.2-0.1-4.4,0.1-6.6&#xA;&#9;&#9;c0.2-2.3,0.7-4.6,1.4-6.9c0.2-0.6,0.3-1.3,0.3-2c0-0.9-0.3-1.8-0.7-2.6c-1.2-2.4-1.3-5.2-0.3-7.6c0.6-1.8,2-3.2,3.8-3.9&#xA;&#9;&#9;c0.2-0.1,0.3-0.1,0.3-0.1c0,0,0-0.1,0-0.1c0-0.1,0-0.2,0-0.4v-2.9c0-0.2,0.1-0.4,0.2-0.5c0.1-0.1,0.3-0.2,0.5-0.2&#xA;&#9;&#9;c2.3,0,4.8,0,5.2,0c0.1,0,0.3,0,0.4,0c0.5,0.2,0.5,0.2,0.4,3.8c0,0.1,0,0.2,0,0.2c0.1,0.1,0.2,0.1,0.3,0.2c2.5,1,3.9,3.1,4.3,6.2&#xA;&#9;&#9;c0.3,1.8,0,3.6-0.8,5.3c-0.5,0.8-0.7,1.7-0.7,2.7c0,0.7,0.1,1.5,0.4,2.2c0.7,2.2,1.2,4.4,1.3,6.6l0,0c0.2,2.2,0.2,4.4,0.1,6.6&#xA;&#9;&#9;c0.1,1.7-1.3,3.2-3,3.2c-0.1,0-0.3,0-0.4,0L209.5,248.8z M207.5,215.7c0,0.7-0.5,1.4-1.2,1.6c-1.4,0.5-2.5,1.7-2.9,3.1&#xA;&#9;&#9;c-0.9,2.1-0.8,4.5,0.2,6.5c0.5,1,0.8,2.1,0.9,3.3c0,0.8-0.1,1.7-0.4,2.4c-0.7,2.1-1.1,4.3-1.3,6.6c-0.2,2.1-0.2,4.3-0.1,6.4&#xA;&#9;&#9;c-0.1,1,0.6,1.8,1.6,1.9c0.1,0,0.3,0,0.4,0h9.7c0.9,0.1,1.8-0.5,2-1.5c0-0.1,0-0.3,0-0.4c0.1-2.1,0.1-4.3,0-6.4&#xA;&#9;&#9;c-0.2-2.2-0.6-4.3-1.3-6.3c-0.3-0.9-0.5-1.8-0.4-2.7c0-1.2,0.3-2.3,0.9-3.3c0.7-1.4,0.9-2.9,0.7-4.4c-0.3-2.6-1.5-4.2-3.5-5.1&#xA;&#9;&#9;c-0.8-0.2-1.3-1-1.1-1.9c0-0.8,0-1.7,0-2.3c-0.7,0-1.9,0-4.1,0v2.5C207.5,215.6,207.5,215.7,207.5,215.7L207.5,215.7z"/>
	<path class="st1_recycling-1-6" d="M156.2,248.8c-0.2-2.8-0.8-5.5-1.6-8.1c-0.4-1-0.5-2-0.5-3.1c0-1.3,0.4-2.6,1-3.8c1-1.9,1.3-4,0.9-6.1&#xA;&#9;&#9;c-0.4-3.2-1.8-5.8-4.9-7.1c-0.7-0.3-1-0.7-0.9-1.4c0,0,0.1-4.1,0-4s-6.8,0-6.8,0v4l0,0c0.1,0.7-0.2,1.1-0.9,1.4&#xA;&#9;&#9;c-2,0.8-3.5,2.4-4.2,4.4c-1.2,2.9-1.1,6.1,0.3,8.9c1.1,2,1.3,4.3,0.5,6.5c-0.9,2.7-1.5,5.6-1.7,8.4c-0.2,2.7-0.3,5.5-0.1,8.2&#xA;&#9;&#9;c-0.1,1.7,1.2,3.1,2.9,3.2c0.2,0,0.3,0,0.5,0h12.2c1.6,0.2,3.2-0.9,3.4-2.6c0-0.2,0-0.4,0-0.6C156.4,254.2,156.4,251.5,156.2,248.8&#xA;&#9;&#9;z"/>
	<path class="st2_recycling-1-6" d="M146.8,260.9h-6.1c-2.1,0.2-3.9-1.3-4.1-3.4c0-0.1,0-0.3,0-0.4c-0.2-2.8-0.1-5.5,0.1-8.3&#xA;&#9;&#9;c0.2-2.9,0.8-5.8,1.8-8.6c0.3-0.8,0.4-1.7,0.4-2.6c0-1.2-0.3-2.4-0.9-3.4c-1.5-2.9-1.6-6.4-0.3-9.5c0.8-2.2,2.4-3.9,4.6-4.8&#xA;&#9;&#9;c0.5-0.2,0.5-0.3,0.4-0.6c0-0.1,0-0.3,0-0.4v-3.7c0-0.2,0.1-0.4,0.2-0.5c0.1-0.1,0.3-0.2,0.5-0.2c2.9,0,6.1,0.1,6.6,0&#xA;&#9;&#9;c0.1,0,0.3,0,0.4,0c0.5,0.2,0.5,0.2,0.4,4.6c-0.1,0.4-0.1,0.4,0.5,0.7c3,1.3,4.8,3.9,5.3,7.6c0.4,2.2,0,4.5-1,6.5&#xA;&#9;&#9;c-0.6,1.1-0.9,2.2-0.9,3.5c0,1,0.2,1.9,0.5,2.8c0.9,2.7,1.5,5.5,1.7,8.3l0,0c0.2,2.8,0.2,5.5,0.1,8.3c0.1,2-1.5,3.8-3.5,3.9&#xA;&#9;&#9;c-0.2,0-0.4,0-0.6,0L146.8,260.9z M144.1,219.4c0,0.8-0.5,1.6-1.4,1.8c-1.8,0.7-3.2,2.2-3.8,4c-1.1,2.7-1,5.7,0.3,8.3&#xA;&#9;&#9;c0.7,1.2,1,2.6,1.1,4c0,1-0.2,2-0.5,3c-0.9,2.7-1.5,5.4-1.7,8.3c-0.2,2.7-0.3,5.4-0.1,8.1c-0.1,1.3,0.9,2.5,2.2,2.6&#xA;&#9;&#9;c0.2,0,0.3,0,0.5,0c4.1,0,8.1,0,12.2,0c1.3,0.2,2.5-0.7,2.7-2c0-0.2,0-0.4,0-0.6c0.2-2.7,0.1-5.4-0.1-8.1c-0.2-2.7-0.8-5.4-1.6-8&#xA;&#9;&#9;c-0.4-1.1-0.6-2.2-0.6-3.3c0-1.4,0.4-2.9,1.1-4.1c0.9-1.7,1.2-3.7,0.9-5.6c-0.4-3.3-1.9-5.4-4.5-6.5c-0.9-0.3-1.5-1.2-1.3-2.1&#xA;&#9;&#9;c0-1.1,0-2.4,0-3.1c-0.9,0-2.4,0-5.4,0v3.3C144.1,219.3,144.1,219.4,144.1,219.4z"/>
	<rect x="118.7" y="225.1" class="st1_recycling-1-6" width="16.3" height="26.8"/>
	<path class="st2_recycling-1-6" d="M134.9,252.6h-16.3c-0.4,0-0.7-0.3-0.7-0.7v-26.8c0-0.4,0.3-0.7,0.7-0.7h16.3c0.4,0,0.7,0.3,0.7,0.7V252&#xA;&#9;&#9;C135.6,252.4,135.3,252.6,134.9,252.6z M119.3,251.2h14.9v-25.4h-14.9L119.3,251.2z"/>
	<path class="st3_recycling-1-6 targetColor" d="M103.9,233.8h155.7c1.1,0,1.9,0.9,1.9,1.9v1.1c0,1.1-0.9,1.9-1.9,1.9H103.9c-1.1,0-1.9-0.9-1.9-1.9v-1.1&#xA;&#9;&#9;C102,234.6,102.9,233.8,103.9,233.8z" style="fill: rgb(0, 53, 57);"/>
	<polygon class="st3_recycling-1-6 targetColor" points="244.2,303.9 119.3,303.9 109.5,237.7 254,237.7 &#9;" style="fill: rgb(0, 53, 57);"/>
	<path class="st1_recycling-1-6" d="M111,226.6c0,0,5.7,4.5,3.7,6.2s-10.8,1-10.8,1s-5.9,2.2-4.5,3.9s10.9,2,10.7,3.4s-2.4,2.1-7,2.7&#xA;&#9;&#9;c-10.5,1.2-16.2-6.8-14.2-10.6s8.1-11.1,12.7-15.1s19-20.6,20.7-21.7s20.1-38.3,20.1-38.3l15.2,7.4c0,0-16.8,41.6-20,44.2&#xA;&#9;&#9;S111,226.6,111,226.6z"/>
	<path class="st2_recycling-1-6" d="M101,244.6c-5.9,0-9.9-2.8-11.8-5.7c-1.4-2.2-1.8-4.4-0.9-6.1c2-3.6,8-11.1,12.8-15.3&#xA;&#9;&#9;c2.4-2.1,7.6-7.7,12.2-12.7c4.9-5.4,7.8-8.5,8.6-9c1.4-1.2,12.9-23.9,19.8-38c0.2-0.4,0.6-0.5,1-0.3c0,0,0,0,0,0l15.2,7.5&#xA;&#9;&#9;c0.3,0.2,0.5,0.6,0.4,0.9c-1.7,4.3-17,41.8-20.2,44.5c-2.9,2.3-21.5,13.7-25.8,16.3c1.3,1.1,3.6,3.4,3.6,5.1c0,0.6-0.2,1.2-0.7,1.5&#xA;&#9;&#9;c-2.1,1.8-9.7,1.3-11.1,1.2c-1.8,0.7-3.9,1.9-4.1,2.6c0,0,0,0.1,0,0.2c0.5,0.7,3.5,1.2,5.5,1.6c3,0.6,4.6,0.9,5.1,1.7&#xA;&#9;&#9;c0.2,0.2,0.2,0.5,0.2,0.8c-0.4,2-3.2,2.7-7.7,3.2C102.4,244.6,101.7,244.6,101,244.6z M142.7,159.2c-4.7,9.4-18.3,36.9-20.1,37.9&#xA;&#9;&#9;c-0.7,0.4-4.6,4.6-8.3,8.7c-4.6,5-9.8,10.7-12.3,12.9c-4.6,4-10.6,11.4-12.5,14.9c-0.6,1.1-0.3,2.9,0.8,4.6&#xA;&#9;&#9;c1.9,2.8,6.2,5.6,12.6,4.9c2.7-0.3,5.8-0.8,6.3-1.9c-1.3-0.5-2.7-0.8-4.1-1c-3.3-0.6-5.5-1.1-6.3-2.1c-0.3-0.4-0.5-0.9-0.3-1.4&#xA;&#9;&#9;c0.5-1.8,4.3-3.4,5.1-3.6c0.1,0,0.2,0,0.3,0c3.3,0.3,9,0.3,10.2-0.8c0.1-0.1,0.2-0.2,0.2-0.4c0-1.2-2.3-3.4-3.9-4.7&#xA;&#9;&#9;c-0.2-0.1-0.3-0.4-0.3-0.6c0-0.2,0.1-0.5,0.3-0.6c0.2-0.1,23.5-14.2,26.5-16.7c2.2-1.8,12.8-26.6,19.5-43.3L142.7,159.2z"/>
	<path class="st2_recycling-1-6" d="M164,147c0,0-11.3-0.2-18,3.3s-20.9,34.9-20.9,34.9l28.5,15.8L164,147z"/>
	<path class="st2_recycling-1-6" d="M153.5,201.8c-0.1,0-0.2,0-0.3-0.1l-28.5-15.8c-0.3-0.2-0.4-0.6-0.3-0.9c0.6-1.3,14.3-31.6,21.2-35.3&#xA;&#9;&#9;s17.9-3.4,18.4-3.4c0.4,0,0.7,0.3,0.7,0.7c0,0,0,0.1,0,0.1l-10.5,54.1c0,0.2-0.2,0.4-0.4,0.5C153.7,201.8,153.6,201.8,153.5,201.8z&#xA;&#9;&#9; M126,185l27,15l10.1-52.3c-2.7,0-11.4,0.4-16.9,3.2C140.3,154.1,127.9,180.7,126,185z"/>
	<path class="st1_recycling-1-6" d="M252.4,226.6c0,0-5.7,4.5-3.7,6.2s10.8,1,10.8,1s5.9,2.2,4.5,3.9s-10.9,2-10.6,3.4s2.4,2.1,7,2.7&#xA;&#9;&#9;c10.4,1.2,16.2-6.8,14.2-10.6s-8.1-11.1-12.7-15.1s-19-20.6-20.7-21.7S221,158.2,221,158.2l-15.2,7.4c0,0,16.8,41.6,20,44.2&#xA;&#9;&#9;S252.4,226.6,252.4,226.6z"/>
	<path class="st2_recycling-1-6" d="M262.4,244.6c-0.7,0-1.4,0-2.1-0.1c-4.4-0.5-7.3-1.2-7.7-3.2c-0.1-0.3,0-0.6,0.2-0.8c0.5-0.8,2.1-1.1,5.1-1.7&#xA;&#9;&#9;c2-0.4,5-0.9,5.5-1.6c0.1-0.1,0.1-0.1,0-0.2c-0.2-0.7-2.2-1.9-4.1-2.6c-1.5,0.1-9.1,0.6-11.1-1.2c-0.5-0.4-0.7-0.9-0.7-1.5&#xA;&#9;&#9;c0-1.8,2.3-4,3.6-5.1c-4.3-2.6-23-14-25.8-16.3c-3.2-2.6-18.5-40.2-20.2-44.5c-0.1-0.4,0-0.8,0.4-0.9l15.2-7.4c0.4-0.2,0.8,0,1,0.3&#xA;&#9;&#9;c0,0,0,0,0,0c6.9,14,18.5,36.8,19.9,38c0.8,0.5,3.6,3.6,8.6,9c4.6,5,9.8,10.7,12.2,12.7c4.8,4.2,10.9,11.6,12.8,15.3&#xA;&#9;&#9;c0.9,1.6,0.5,3.9-0.9,6.1C272.3,241.8,268.2,244.6,262.4,244.6z M254,241.2c0.6,1.1,3.6,1.6,6.4,1.9c6.4,0.7,10.7-2.1,12.6-4.9&#xA;&#9;&#9;c1.1-1.7,1.5-3.4,0.8-4.6c-1.9-3.5-7.9-10.9-12.5-14.9c-2.5-2.1-7.7-7.8-12.3-12.9c-3.7-4.1-7.6-8.3-8.3-8.7&#xA;&#9;&#9;c-1.7-1.1-15.4-28.5-20.1-37.9l-14,6.8c6.8,16.6,17.3,41.5,19.5,43.3c3.1,2.5,26.3,16.6,26.5,16.7c0.2,0.1,0.3,0.3,0.4,0.6&#xA;&#9;&#9;c0,0.2-0.1,0.5-0.3,0.6c-1.6,1.2-3.8,3.5-3.9,4.7c0,0.2,0,0.3,0.2,0.4c1.3,1.1,7,1.1,10.2,0.8c0.1,0,0.2,0,0.3,0&#xA;&#9;&#9;c0.8,0.3,4.6,1.8,5.1,3.6c0.1,0.5,0,1.1-0.3,1.4c-0.8,1-3,1.4-6.4,2.1C256.7,240.4,255.4,240.7,254,241.2L254,241.2z"/>
	<path class="st2_recycling-1-6" d="M199.4,147c0,0,11.3-0.2,18,3.3s20.9,34.9,20.9,34.9l-28.5,15.8L199.4,147z"/>
	<path class="st2_recycling-1-6" d="M209.8,201.8c-0.1,0-0.2,0-0.3-0.1c-0.2-0.1-0.3-0.3-0.4-0.5l-10.5-54.1c-0.1-0.4,0.2-0.7,0.6-0.8&#xA;&#9;&#9;c0,0,0.1,0,0.1,0c0.5,0,11.5-0.2,18.4,3.4s20.6,34,21.2,35.3c0.1,0.3,0,0.7-0.3,0.9l-28.5,15.8&#xA;&#9;&#9;C210.1,201.7,209.9,201.8,209.8,201.8z M200.2,147.7l10.1,52.3l27.1-15c-2-4.3-14.4-30.9-20.3-34&#xA;&#9;&#9;C211.6,148.1,202.9,147.8,200.2,147.7z"/>
	<path class="st2_recycling-1-6" d="M247,241.4H114.5c-0.4,0-0.7-0.2-0.8-0.6s0.2-0.7,0.6-0.8c0.1,0,0.1,0,0.2,0H247c0.4,0,0.7,0.2,0.8,0.6&#xA;&#9;&#9;s-0.2,0.7-0.6,0.8C247.1,241.5,247.1,241.5,247,241.4z"/>
	<path class="st1_recycling-1-6" d="M177.4,252c2.3,0.5,3.6,2.3,5,3.8l-5.8,9.7l-7.4-4.4l0.2-0.4c1.5-2.4,3-4.8,4.5-7.2c0.5-0.8,1.2-1.3,2.1-1.5&#xA;&#9;&#9;c0.1,0,0.1,0,0.2-0.1H177.4z"/>
	<path class="st1_recycling-1-6" d="M188.6,286.1l0.2,3.6c-0.1-0.1-0.2-0.2-0.2-0.3c-1.6-2.5-3.1-5-4.7-7.5c-0.1-0.2-0.1-0.4,0-0.5&#xA;&#9;&#9;c1.4-2.5,2.9-4.9,4.3-7.4c0-0.1,0.1-0.1,0.2-0.3c0,0.9,0.1,1.7,0.1,2.5c0,0.3,0,0.7,0,1c0,0.1,0.1,0.2,0.2,0.3&#xA;&#9;&#9;c3,0.4,6.1,0.2,9.1-0.4c0.6-0.2,1.3-0.4,1.9-0.7c0,0.1-0.1,0.2-0.1,0.3c-1.4,2.6-2.7,5.2-4.1,7.8c-0.4,0.8-1.2,1.3-2.1,1.4&#xA;&#9;&#9;c-1.4,0.1-2.7,0.2-4.1,0.2L188.6,286.1z"/>
	<path class="st1_recycling-1-6" d="M176.5,273.2l-3.2-2c-2.6,2.8-4.5,6.2-5.5,9.8l-0.2-0.4c-1.4-2.5-2.7-5.1-4.1-7.6c-0.4-0.7-0.4-1.6-0.1-2.3&#xA;&#9;&#9;c0.7-1.3,1.6-2.6,2.3-4c0.1-0.1,0.2-0.3,0.3-0.4l-2.9-1.8v-0.1h0.4l8.6,0.3c0.2,0,0.4,0,0.5,0.3c1.2,2.6,2.5,5.3,3.7,7.9&#xA;&#9;&#9;C176.4,273,176.5,273.1,176.5,273.2z"/>
	<path class="st1_recycling-1-6" d="M182.8,263.6l3.3-1.9c-1.2-3.6-3.3-6.9-6.1-9.5h0.5c2.9,0,5.8,0,8.7,0c0.9,0,1.8,0.5,2.2,1.3&#xA;&#9;&#9;c0.7,1.2,1.5,2.5,2.2,3.7l0.2,0.4l3.1-1.8l-0.2,0.4l-4.4,7.5c-0.1,0.2-0.3,0.3-0.5,0.3l-8.7-0.4L182.8,263.6z"/>
	<path class="st1_recycling-1-6" d="M181.1,277.9l-0.4,8.6l-1.9-0.1c-2.4-0.2-4.8-0.4-7.2-0.5c-0.6,0-1.2-0.3-1.7-0.7c-1.1-1-1.6-2.5-1.2-4&#xA;&#9;&#9;c0.3-1.3,0.7-2.6,1.1-3.8L181.1,277.9z"/>
	<path class="st1_recycling-1-6" d="M189.6,267.2l7.3-4.5c0.1,0.1,0.2,0.2,0.2,0.4l4.2,7.2c0.9,1.5,0.6,3.3-0.7,4.5c-0.9,0.8-1.9,1.3-3.1,1.6&#xA;&#9;&#9;c-0.6,0.2-1.3,0.4-1.9,0.5c-0.1,0-0.3,0-0.4-0.1c-1.9-3-3.7-6.1-5.6-9.2L189.6,267.2z"/>
	<path class="st0_recycling-1-6" d="M195.8,229.6h-16.9c-0.4,0-0.7-0.3-0.7-0.7c0-0.4,0.3-0.7,0.7-0.7h16.9c0.4,0,0.7,0.3,0.7,0.7&#xA;&#9;&#9;C196.5,229.3,196.1,229.6,195.8,229.6z"/>
	<path class="st0_recycling-1-6" d="M152.8,231c-0.4,0-0.7-0.3-0.7-0.6c-0.1-2.4-1.3-4.6-3.2-6.1c-0.3-0.2-0.4-0.6-0.2-1c0.2-0.3,0.6-0.4,1-0.2&#xA;&#9;&#9;l0,0c2.3,1.7,3.7,4.3,3.9,7.1C153.5,230.6,153.2,231,152.8,231L152.8,231z"/>
	<path class="st0_recycling-1-6" d="M132.2,229.6h-11.9c-0.4,0-0.7-0.3-0.7-0.7c0-0.4,0.3-0.7,0.7-0.7c0,0,0,0,0,0h11.9c0.4,0,0.7,0.3,0.7,0.7&#xA;&#9;&#9;C132.9,229.3,132.6,229.6,132.2,229.6z"/>
	<path class="st0_recycling-1-6" d="M205.8,228.4c-0.4,0-0.7-0.3-0.7-0.7c0-0.2,0.1-0.5,0.3-0.6c0.2-0.1,0.4-0.3,7.3-0.1c0.4,0,0.7,0.3,0.7,0.7&#xA;&#9;&#9;c0,0,0,0,0,0c0,0.4-0.3,0.7-0.7,0.7c-2.9-0.1-6.1-0.1-6.6,0C205.9,228.4,205.8,228.4,205.8,228.4z"/>
	<path class="st1_recycling-1-6" d="M151,199.1h-0.1c-0.4-0.1-0.6-0.4-0.6-0.8l6.6-32.7c0.1-0.4,0.4-0.6,0.8-0.6c0,0,0,0,0,0&#xA;&#9;&#9;c0.4,0.1,0.6,0.4,0.5,0.8l-6.6,32.7C151.6,198.8,151.3,199.1,151,199.1z"/>
	<path class="st1_recycling-1-6" d="M212.3,196c-0.4,0-0.6-0.3-0.7-0.6l-4.2-32.6c0-0.4,0.2-0.7,0.6-0.8c0.4-0.1,0.7,0.2,0.8,0.6c0,0,0,0,0,0&#xA;&#9;&#9;l4.2,32.6C213,195.6,212.8,195.9,212.3,196L212.3,196z"/>
</g>
<g id="trash_bin_recycling-1-6">
	<path class="st1_recycling-1-6" d="M347.6,281.7c-2.3-5.6-1.7-12,1.4-17.2c3.2-5.5,9.7-8.8,12.5-14.4c3.3-6.6,0.9-13.8,0.4-20.6&#xA;&#9;&#9;c-0.1-1,0-1.9,0.4-2.8c0.8-1.3,2.3-2,3.8-1.7c1.5,0.3,2.8,1.1,3.7,2.4c0.7,0.9,1.4,1.9,2.5,1.9s1.7-0.9,2.3-1.7&#xA;&#9;&#9;c1.3-1.7,3-3.1,5-4.1c0.5-0.3,1.1-0.4,1.7-0.4c0.9,0.2,1.7,0.9,1.8,1.9c0.2,0.9,0.2,1.8,0,2.8c1.9-0.6,3.8-0.7,5.7-0.3&#xA;&#9;&#9;c1.9,0.6,3.5,2.5,2.9,4.4c-0.4,1-1.1,1.9-2,2.6c-2,1.8-6,5.2-5.5,7.8s4.8,6.6,6.2,9c3.7,6,6.3,12.7,7.6,19.6&#xA;&#9;&#9;c0.6,3.6,0.2,7.6-2,10.6c-3.6,5-9.9,5.6-15.5,6.1c-7.4,0.7-14.9,0.9-22.4,0.6C352.9,287.8,349.6,286.5,347.6,281.7z"/>
	<path class="st0_recycling-1-6" d="M364.9,289c-2.4,0-4.7-0.1-7-0.2c-4.3-0.2-8.6-1.2-11-6.8l0,0c-2.3-5.8-1.8-12.4,1.4-17.8&#xA;&#9;&#9;c1.7-2.7,3.8-5.1,6.3-7.1c2.5-2.3,4.8-4.5,6.2-7.2c2.4-4.8,1.6-10,0.9-15.1c-0.2-1.7-0.5-3.4-0.6-5.1c-0.1-1.1,0-2.2,0.4-3.2&#xA;&#9;&#9;c0.9-1.6,2.7-2.4,4.5-2.1c1.6,0.3,3.1,1.3,4.1,2.6l0.2,0.3c0.5,0.7,1.1,1.4,1.7,1.4s1.1-0.7,1.6-1.4c1.4-1.9,3.2-3.4,5.4-4.4&#xA;&#9;&#9;c0.6-0.4,1.3-0.5,2.1-0.5c1.2,0.2,2.2,1.2,2.4,2.4c0.1,0.7,0.2,1.3,0.1,2c1.7-0.5,3.4-0.5,5.1-0.1c2.2,0.7,4,2.9,3.4,5.2&#xA;&#9;&#9;c-0.4,1.1-1.2,2.1-2.1,2.8l-0.6,0.5c-1.8,1.6-5.3,4.7-4.9,6.8c0.3,1.5,2.1,3.7,3.7,5.6c0.9,1,1.7,2.1,2.5,3.2&#xA;&#9;&#9;c3.8,6.1,6.4,12.8,7.7,19.9c0.8,3.9,0.1,7.9-2.1,11.2c-3.8,5.2-10.2,5.8-15.8,6.4h-0.1C375.1,288.7,369.9,289,364.9,289z&#xA;&#9;&#9; M348.2,281.5c1.9,4.6,5.3,5.8,9.7,6c7.4,0.3,14.9,0.1,22.3-0.6h0.1c5.4-0.5,11.4-1.1,14.9-5.8c1.9-3,2.6-6.6,1.9-10.1&#xA;&#9;&#9;c-1.3-6.9-3.8-13.5-7.5-19.4c-0.7-1-1.5-2-2.3-3c-1.8-2.1-3.6-4.4-4-6.2c-0.5-2.8,3-6,5.3-8.1l0.6-0.5c0.7-0.6,1.3-1.3,1.7-2.1&#xA;&#9;&#9;c0.4-1.5-0.9-3-2.4-3.5c-1.7-0.5-3.7-0.1-5.4,0.3c-0.2,0.1-0.5,0-0.6-0.2c-0.2-0.2-0.2-0.4-0.2-0.6c0.2-0.8,0.2-1.7,0.1-2.5&#xA;&#9;&#9;c-0.1-0.6-0.6-1.2-1.2-1.3c-0.5,0-0.9,0.1-1.3,0.4c-1.9,0.9-3.5,2.2-4.8,3.9c-0.7,0.9-1.5,2-2.8,2s-2.2-1.1-2.9-1.9l-0.2-0.2&#xA;&#9;&#9;c-0.8-1.1-1.9-1.8-3.2-2.1c-1.2-0.2-2.4,0.3-3.1,1.4c-0.3,0.8-0.4,1.6-0.3,2.4c0.1,1.6,0.4,3.3,0.6,5c0.7,5.3,1.5,10.8-1,15.9&#xA;&#9;&#9;c-1.5,3-4,5.3-6.5,7.6c-2.3,1.9-4.3,4.2-6,6.8C346.5,270,346,276.1,348.2,281.5L348.2,281.5z"/>
	<path class="st0_recycling-1-6" d="M371.5,246.7c-1.9,0-3.7-0.2-5.4-0.3c-0.4,0-0.7-0.4-0.6-0.8c0-0.4,0.4-0.7,0.8-0.6c0,0,0,0,0,0&#xA;&#9;&#9;c2.8,0.4,5.7,0.4,8.5,0.1c2.8-0.3,5.3-1.5,7.4-3.4c0.3-0.3,0.7-0.3,1,0s0.3,0.7,0,1l0,0c-2.2,2.1-5.1,3.4-8.2,3.8&#xA;&#9;&#9;C373.8,246.6,372.7,246.7,371.5,246.7z"/>
	<path class="st0_recycling-1-6" d="M375.6,253.6c-0.3,0-0.5-0.2-0.6-0.4c-0.7-1.5-1.4-3-2-4.6l-3.8,4.1c-0.3,0.3-0.7,0.3-1,0c0,0,0,0,0,0&#xA;&#9;&#9;c-0.3-0.3-0.3-0.7,0-1l4.6-4.9c0.2-0.2,0.4-0.3,0.6-0.2c0.2,0,0.4,0.2,0.5,0.4c0.8,1.8,1.6,3.7,2.4,5.5c0.2,0.4,0,0.8-0.3,0.9&#xA;&#9;&#9;C375.8,253.6,375.7,253.6,375.6,253.6z"/>
	<path class="st1_recycling-1-6" d="M368.6,277.5c2.7-6.8,2.1-14.5-1.6-20.9c-2.8-4.5-6.2-8.5-10.2-11.9c-4.2-3.8-9.9-7.9-7.3-14.3&#xA;&#9;&#9;c1.1-2.8,3.1-5.2,3.8-8.1c0.5-1.8,0.3-4-1.3-5.1c-1.7-1.1-4-0.2-5.9,0.7s-4.3,1.6-5.8,0.3c-1.7-1.5-1.5-4.9-3.8-5.4&#xA;&#9;&#9;s-3.5,2.5-5.6,2.8c-2.7,0.4-4.7-3.5-7.5-3c-4.9,0.8,0,10.9,1,13c0.4,0.7,0.7,1.5,0.7,2.4c-0.1,0.8-0.5,1.6-1.1,2.2&#xA;&#9;&#9;c-7.8,10.3-14,21.1-16.3,34.1c-0.8,4.4-0.2,9.2,2.4,12.9c4.4,6.1,12,6.8,18.8,7.4c9,0.9,18.1,1.1,27.1,0.7&#xA;&#9;&#9;C362.1,284.9,366.2,283.2,368.6,277.5z"/>
	<path class="st0_recycling-1-6" d="M347.7,286.1c-6.1,0-12.4-0.3-18.7-0.9h-0.2c-6.8-0.7-14.5-1.4-19.1-7.7c-2.5-3.4-3.4-8.3-2.5-13.4&#xA;&#9;&#9;c2-11.5,7.1-22.1,16.4-34.4c0.5-0.5,0.8-1.1,1-1.8c0-0.7-0.2-1.4-0.6-1.9l-0.1-0.2c-2.9-6.1-3.8-10.1-2.7-12.2&#xA;&#9;&#9;c0.5-0.9,1.3-1.5,2.3-1.6c1.7-0.3,3,0.7,4.3,1.6s2.1,1.6,3.2,1.4c0.8-0.2,1.6-0.7,2.2-1.3c1-0.9,2.2-1.8,3.7-1.5s2.2,1.9,2.8,3.2&#xA;&#9;&#9;c0.3,0.9,0.7,1.7,1.3,2.3c1,0.9,2.7,0.7,5.1-0.4c1.5-0.7,4.4-2.1,6.6-0.6c1.9,1.3,2,4,1.6,5.8c-0.5,1.8-1.3,3.4-2.2,5&#xA;&#9;&#9;c-0.6,1-1.1,2.1-1.6,3.2c-2.1,5.3,1.9,8.9,5.8,12.3c0.4,0.4,0.9,0.8,1.3,1.1c4,3.4,7.5,7.5,10.3,12c3.9,6.5,4.5,14.4,1.7,21.5l0,0&#xA;&#9;&#9;c-2.8,6.8-8,7.9-13.2,8.2C353.4,286,350.5,286.1,347.7,286.1z M323.9,213.2c-0.1,0-0.2,0-0.3,0c-0.5,0.1-1,0.4-1.3,0.9&#xA;&#9;&#9;c-0.6,1.2-0.6,4,2.8,11l0.1,0.1c0.5,0.8,0.8,1.8,0.8,2.7c-0.2,1-0.6,1.8-1.2,2.6c-9.2,12.1-14.2,22.6-16.2,33.8&#xA;&#9;&#9;c-0.8,4.7,0,9.2,2.3,12.4c4.2,5.8,11.6,6.5,18.1,7.1h0.2c9,0.9,18,1.1,27,0.7c5.4-0.3,9.5-1.6,11.9-7.3l0,0&#xA;&#9;&#9;c2.7-6.6,2-14.1-1.6-20.2c-2.7-4.7-6.6-8.6-10-11.7c-0.4-0.4-0.8-0.8-1.3-1.1c-4.1-3.6-8.7-7.7-6.2-13.9c0.5-1.2,1.1-2.3,1.7-3.4&#xA;&#9;&#9;c0.9-1.5,1.6-3,2.1-4.7c0.4-1.6,0.2-3.5-1-4.3s-3.3-0.2-5.2,0.7c-3,1.4-5.1,1.5-6.6,0.2c-0.8-0.8-1.4-1.8-1.7-2.9&#xA;&#9;&#9;c-0.5-1.4-0.9-2.2-1.8-2.4s-1.6,0.5-2.5,1.2c-0.8,0.8-1.8,1.3-2.9,1.6c-1.7,0.3-3-0.8-4.2-1.6C326,213.9,325,213.4,323.9,213.2z&#xA;&#9;&#9; M368.6,277.5L368.6,277.5z"/>
	<path class="st0_recycling-1-6" d="M339.6,234.9c-1.4,0-2.8-0.1-4.1-0.3c-3.7-0.4-7.1-2-9.8-4.5c-0.3-0.3-0.3-0.7,0-1s0.7-0.3,1,0&#xA;&#9;&#9;c2.5,2.3,5.6,3.8,9,4.1c3.5,0.3,6.9,0.3,10.4-0.1c0.4,0,0.7,0.2,0.8,0.6c0,0,0,0,0,0c0,0.4-0.2,0.7-0.6,0.8c0,0,0,0,0,0&#xA;&#9;&#9;C344.1,234.7,341.9,234.9,339.6,234.9z"/>
	<path class="st0_recycling-1-6" d="M334.7,243.3c-0.1,0-0.2,0-0.3-0.1c-0.3-0.2-0.5-0.6-0.3-0.9c0,0,0,0,0,0c1-2.2,2-4.4,2.9-6.7&#xA;&#9;&#9;c0.1-0.2,0.3-0.4,0.5-0.4c0.2,0,0.5,0,0.6,0.2l5.5,5.9c0.3,0.3,0.3,0.7,0,1c-0.3,0.3-0.7,0.3-1,0c0,0,0,0,0,0l-4.8-5.1&#xA;&#9;&#9;c-0.8,1.9-1.7,3.9-2.6,5.8C335.2,243.2,335,243.3,334.7,243.3z"/>
	<path class="st1_recycling-1-6" d="M326.5,248.7c-2.3-3.1-7.6-0.2-8.5-4.5l-4-20l-2.9,0.6l-2.4,0.5l-2.9,0.6l4,20c0.9,4.3-5.1,3.7-6.1,7.4&#xA;&#9;&#9;s5,28.3,5,28.3l23.9-4.8C332.6,276.9,328.8,251.8,326.5,248.7z"/>
	<path class="st0_recycling-1-6" d="M308.8,282.3c-0.3,0-0.6-0.2-0.7-0.5c-0.6-2.5-6-24.9-5-28.7c0.5-2,2.2-2.9,3.6-3.6c1.8-1,2.9-1.6,2.5-3.4&#xA;&#9;&#9;l-4-20c-0.1-0.4,0.2-0.7,0.5-0.8c0,0,0,0,0,0l8.1-1.6c0.4-0.1,0.7,0.2,0.8,0.6l4,20c0.4,1.8,1.5,2,3.6,2.2c1.6,0.2,3.5,0.4,4.7,2&#xA;&#9;&#9;l0,0c2.4,3.1,6,25.8,6.4,28.4c0.1,0.4-0.2,0.7-0.6,0.8l-23.9,4.8L308.8,282.3z M306.7,226.4l3.8,19.3c0.6,2.9-1.5,4-3.2,5&#xA;&#9;&#9;c-1.3,0.7-2.6,1.4-2.9,2.8c-0.7,2.8,3.1,20.1,4.9,27.4l22.6-4.5c-1.2-7.4-4.2-24.8-6-27.1l0,0c-0.9-1.1-2.3-1.3-3.8-1.4&#xA;&#9;&#9;c-1.9-0.2-4.3-0.4-4.8-3.3l-3.9-19.3L306.7,226.4z"/>
	<path class="st3_recycling-1-6 targetColor" d="M291.6,252.8h115.2c3,0,5.4,2.4,5.4,5.4v1.2c0,3-2.4,5.4-5.4,5.4H291.6c-3,0-5.4-2.4-5.4-5.4v-1.2&#xA;&#9;&#9;C286.2,255.3,288.6,252.8,291.6,252.8z" style="fill: rgb(0, 53, 57);"/>
	<path class="st3_recycling-1-6 targetColor" d="M380.4,415.7H318c-5.3,0-9.8-4.1-10.2-9.4l-12.7-141.5h108.3l-12.7,141.5C390.2,411.7,385.8,415.7,380.4,415.7&#xA;&#9;&#9;z" style="fill: rgb(0, 53, 57);"/>
	<path class="st1_recycling-1-6" d="M342.2,303.4c3.1,0.6,4.9,3.1,6.9,5.2l-8,13.2l-10.1-6c0.1-0.2,0.2-0.4,0.3-0.6c2.1-3.2,4.1-6.5,6.1-9.8&#xA;&#9;&#9;c0.6-1.1,1.7-1.8,2.9-2c0.1,0,0.2-0.1,0.3-0.1L342.2,303.4z"/>
	<path class="st1_recycling-1-6" d="M357.6,349.9l0.2,4.8c-0.1-0.2-0.2-0.3-0.3-0.4c-2.1-3.4-4.2-6.8-6.4-10.2c-0.2-0.2-0.2-0.5,0-0.7&#xA;&#9;&#9;c2-3.3,4-6.7,5.9-10.1c0.1-0.1,0.1-0.2,0.3-0.4c0,1.2,0.1,2.3,0.1,3.4c0,0.5,0,0.9,0.1,1.4c0,0.2,0.2,0.3,0.3,0.4&#xA;&#9;&#9;c4.1,0.5,8.3,0.3,12.3-0.5c0.9-0.2,1.7-0.6,2.6-0.9c-0.1,0.2-0.1,0.3-0.2,0.4c-1.9,3.5-3.7,7.1-5.6,10.6c-0.6,1.1-1.7,1.8-2.9,1.8&#xA;&#9;&#9;c-1.8,0.1-3.7,0.2-5.5,0.3L357.6,349.9z"/>
	<path class="st1_recycling-1-6" d="M341.1,332.4l-4.4-2.7c-2.8,3-6.3,8-7.5,13.4l-0.3-0.5c-1.9-3.5-3.7-6.9-5.5-10.4c-0.6-0.9-0.6-2.1-0.1-3.1&#xA;&#9;&#9;c1-1.8,2.1-3.6,3.2-5.4l0.4-0.6l-4-2.5v-0.1h0.5l11.8,0.5c0.3,0,0.5,0,0.7,0.4c1.7,3.6,3.4,7.2,5.1,10.8&#xA;&#9;&#9;C341,332.1,341,332.2,341.1,332.4z"/>
	<path class="st1_recycling-1-6" d="M349.6,319.3l4.5-2.6c-1.9-4.8-4.3-9.3-8.3-12.9h0.6c3.9,0,7.9,0,11.8,0c1.3,0,2.4,0.7,3,1.8c1,1.7,2,3.4,3,5&#xA;&#9;&#9;c0.1,0.2,0.2,0.3,0.3,0.5l4.2-2.5l-0.3,0.5c-2,3.4-4,6.8-6,10.2c-0.1,0.3-0.4,0.4-0.7,0.4c-3.9-0.2-7.9-0.4-11.8-0.6L349.6,319.3z"/>
	<path class="st1_recycling-1-6" d="M347.4,338.7l-0.5,11.7l-2.6-0.2c-3.3-0.2-6.6-0.5-9.9-0.7c-0.8,0-1.6-0.4-2.2-1c-1.5-1.4-2.2-3.4-1.7-5.4&#xA;&#9;&#9;c0.4-1.8,1-3.5,1.5-5.2L347.4,338.7z"/>
	<path class="st1_recycling-1-6" d="M358.9,324.2l10-6.2c0.1,0.2,0.2,0.3,0.3,0.5l5.8,9.9c1.2,2,0.8,4.5-0.9,6.1c-1.2,1-2.6,1.8-4.2,2.1&#xA;&#9;&#9;c-0.9,0.3-1.7,0.5-2.6,0.7c-0.2,0-0.4,0-0.5-0.2c-2.6-4.1-5.1-8.3-7.6-12.5L358.9,324.2z"/>
	<path class="st2_recycling-1-6" d="M391.9,265.6h-96.8c-0.4,0-0.7-0.4-0.6-0.8c0-0.3,0.3-0.6,0.6-0.6h96.8c0.4,0,0.7,0.2,0.8,0.6&#xA;&#9;&#9;c0,0.4-0.2,0.7-0.6,0.8C392,265.6,391.9,265.6,391.9,265.6L391.9,265.6z"/>
	<path class="st1_recycling-1-6" d="M314.8,228.2c-0.9-0.1-8.2,1.4-8.2,1.4"/>
	<path class="st0_recycling-1-6" d="M306.6,230.3c-0.4,0-0.7-0.3-0.7-0.7c0-0.4,0.2-0.7,0.6-0.7c2.8-0.6,5.6-1.1,8.4-1.4c0.4,0,0.7,0.3,0.7,0.7&#xA;&#9;&#9;c0,0.4-0.3,0.7-0.7,0.7c0,0-0.1,0-0.1,0c-0.5-0.1-4.5,0.7-8,1.4L306.6,230.3z"/>
</g>
</svg>